<?xml version="1.0" encoding="utf-8"?>
<!-- Generator: Adobe Illustrator 23.0.4, SVG Export Plug-In . SVG Version: 6.00 Build 0)  -->
<svg version="1.1" id="arrow-frame" xmlns="http://www.w3.org/2000/svg" xmlns:xlink="http://www.w3.org/1999/xlink" x="0px"
	 y="0px" viewBox="0 0 343.1 395.1" style="enable-background:new 0 0 343.1 395.1;" xml:space="preserve">
<style type="text/css">
	.frame-color{fill:#FF00DE;}
	.background-color{fill:#ffffff;}
	.text-color{fill:#FFFFFF;}
	.outline{fill:#E6E6E6;}
</style>
<path id="WhiteBackground" class="background-color" d="M328.4,1H76.7C69.1,1,63,7.2,63,14.7v251.7c0,7.6,6.2,13.7,13.7,13.7h251.6
	c7.6,0,13.7-6.2,13.8-13.7V14.7C342.1,7.1,335.9,1,328.4,1z"/>
<path id="Outline" class="outline" d="M328.3,281.1H76.7c-8.1,0-14.7-6.6-14.7-14.7V14.7C62,6.6,68.6,0,76.7,0h251.7
	c8.1,0,14.7,6.6,14.7,14.7v251.7C343,274.5,336.4,281.1,328.3,281.1z M76.7,2C69.7,2,64,7.7,64,14.7v251.7c0,7,5.7,12.7,12.7,12.7
	h251.6c7,0,12.7-5.7,12.8-12.7V14.7c0-7-5.7-12.7-12.7-12.7H76.7z"/>

	<path id="CallToActionArrow" class="frame-color" d="M43.2,177.1L43.2,177.1
	c0.2-3.4,0.5-6.9,0.8-10.3c0.4-3.4,0.8-6.8,1.4-10.1c0.6-3.3,1.3-6.6,2.1-9.8c0.9-3.1,1.9-6.2,3.2-8.7l0,0c0.1-0.3,0.2-0.7,0.3-1.1
	c0.6-3.2-1.4-6.3-4.6-6.9l-0.3-0.1c-0.4-0.1-0.6-0.1-0.9-0.1c-0.3,0-0.5-0.1-0.8-0.1c-0.5,0-1-0.1-1.5-0.1c-1,0-2,0.1-3,0.1
	c-2,0.2-3.9,0.4-5.8,0.7c-3.8,0.6-7.6,1.4-11.2,2.4c-3.6,1.1-7.2,2.3-10.6,3.8c-1.7,0.7-3.4,1.6-5.1,2.3c-1.7,0.8-3.3,1.8-4.9,2.6
	c-0.5,0.3-0.8,0.8-0.6,1.4c0.2,0.7,0.8,1.1,1.5,0.9h0.1c1.8-0.4,3.5-0.9,5.2-1.3c1.8-0.4,3.5-0.8,5.2-1c3.5-0.7,7-1,10.5-1.2
	c2.2-0.1,4.5-0.1,6.7-0.1c-4.6,5.4-8.6,11.2-11.9,17.2c-4.5,8.1-8,16.6-10.8,25.3C2.7,200.3,0,218.4,0,236.5c0,18,2.7,36.1,8.3,53.2
	c5.7,17.1,14.3,33.1,25.6,47c0.5,0.6,1.4,0.8,2.1,0.3c0.7-0.5,0.8-1.5,0.3-2.1l0,0c-10.4-14-18.2-29.9-22.9-46.6s-6.5-34.2-5.8-51.4
	c0.7-17.3,4-34.4,9.9-50.5c3-8,6.6-15.8,11-23c2.8-4.6,5.9-8.9,9.4-12.8c0,2,0,3.9,0.1,5.9c0.2,3.6,0.4,7.1,0.8,10.6
	c0.4,3.5,0.8,7,1.4,10.5c0.1,0.7,0.7,1.3,1.5,1.4C42.4,178.7,43.2,178,43.2,177.1z"></path>
	<g transform="rotate(-5) translate(-45 15)">
		<svg id="TextArea" x="68" y="245" width="290" height="140" viewBox="0 0 37.7587890625 17.588541666667" preserveAspectRatio="xMinYMid meet">
<svg version="1.1" xmlns="http://www.w3.org/2000/svg"><path class="frame-color" fill="#FFFFFF" d=" M6.99853515625,7.96533203125q0.2041015625-0.16650390625,0.3974609375-0.41357421875t0.34375-0.52099609375t0.24169921875-0.55859375t0.09130859375-0.53173828125q0-0.19873046875-0.093994140625-0.335693359375t-0.341064453125-0.136962890625q-0.20947265625,0-0.4619140625,0.0966796875t-0.51025390625,0.265869140625t-0.502197265625,0.40283203125t-0.432373046875,0.507568359375t-0.303466796875,0.57470703125t-0.115478515625,0.60693359375q0,0.26318359375,0.064453125,0.453857421875t0.18798828125,0.33837890625t0.298095703125,0.271240234375t0.400146484375,0.2578125q-0.6767578125,0.28466796875-1.243408203125,0.700927734375t-0.974853515625,0.899658203125t-0.636474609375,0.996337890625t-0.228271484375,0.985595703125q0,0.16650390625,0.08056640625,0.292724609375t0.25244140625,0.126220703125q0.2255859375,0,0.5048828125-0.12353515625t0.580078125-0.322265625t0.604248046875-0.44580078125t0.5693359375-0.496826171875t0.475341796875-0.475341796875t0.3330078125-0.38134765625q0.322265625,0.2578125,0.55859375,0.459228515625t0.4404296875,0.367919921875q-0.09130859375,0.12353515625-0.303466796875,0.34375t-0.5048828125,0.47265625t-0.63916015625,0.512939453125t-0.70361328125,0.469970703125t-0.706298828125,0.34375t-0.63916015625,0.13427734375q-0.25244140625,0-0.502197265625-0.0859375t-0.475341796875-0.228271484375t-0.416259765625-0.32763671875t-0.3330078125-0.384033203125t-0.228271484375-0.3974609375t-0.09130859375-0.37060546875l0-0.12890625q0-0.56396484375,0.19873046875-1.0634765625t0.545166015625-0.921142578125t0.81103515625-0.7626953125t0.996337890625-0.593505859375q-0.0966796875-0.0966796875-0.190673828125-0.20947265625t-0.16650390625-0.255126953125t-0.115478515625-0.319580078125t-0.04296875-0.3974609375q0-0.3759765625,0.13427734375-0.73583984375t0.35986328125-0.6767578125t0.529052734375-0.580078125t0.641845703125-0.453857421875t0.69287109375-0.298095703125t0.6875-0.107421875q0.55322265625,0,0.7734375,0.11279296875q0.1826171875,0.0966796875,0.394775390625,0.279296875t0.394775390625,0.400146484375t0.30615234375,0.4404296875t0.12353515625,0.400146484375q0,0.30615234375-0.10205078125,0.63916015625t-0.2685546875,0.647216796875t-0.38134765625,0.5908203125t-0.43505859375,0.464599609375z M9.79150390625,10.59716796875q-0.064453125,0.171875-0.12890625,0.34912109375t-0.12890625,0.365234375q0.33837890625-0.38671875,0.582763671875-0.631103515625t0.41357421875-0.384033203125t0.27392578125-0.190673828125t0.163818359375-0.051025390625q0.06982421875,0,0.20947265625,0.06982421875t0.281982421875,0.171875t0.2470703125,0.20947265625t0.104736328125,0.18798828125q0,0.01611328125-0.00537109375,0.040283203125t-0.01611328125,0.061767578125q-0.04296875,0.13427734375-0.110107421875,0.31689453125t-0.142333984375,0.378662109375l-0.150390625,0.39208984375t-0.13427734375,0.367919921875t-0.0966796875,0.30078125t-0.03759765625,0.18798828125q0,0.0322265625,0.0322265625,0.0322265625q0.05908203125,0,0.17724609375-0.06982421875t0.271240234375-0.1826171875t0.319580078125-0.2470703125t0.319580078125-0.265869140625t0.276611328125-0.239013671875t0.18798828125-0.1611328125q0.0537109375,0.04833984375,0.1181640625,0.12353515625t0.12353515625,0.1396484375q-0.1181640625,0.1181640625-0.29541015625,0.287353515625t-0.384033203125,0.346435546875t-0.4296875,0.3544921875t-0.432373046875,0.31689453125t-0.39208984375,0.2255859375t-0.30615234375,0.0859375q-0.08056640625,0-0.2041015625-0.056396484375t-0.239013671875-0.1396484375t-0.196044921875-0.185302734375t-0.08056640625-0.19873046875q0.04833984375-0.22021484375,0.131591796875-0.49951171875t0.179931640625-0.572021484375t0.201416015625-0.580078125t0.201416015625-0.529052734375l-0.0107421875,0.0107421875q-0.10205078125,0.12353515625-0.292724609375,0.324951171875t-0.432373046875,0.515625t-0.51025390625,0.75732421875t-0.5263671875,1.050048828125q-0.0322265625,0.0751953125-0.05908203125,0.1181640625t-0.10205078125,0.04296875q-0.09130859375,0-0.206787109375-0.051025390625t-0.236328125-0.13427734375t-0.24169921875-0.185302734375t-0.217529296875-0.2041015625q0-0.0322265625,0.029541015625-0.1826171875t0.083251953125-0.378662109375t0.13427734375-0.52099609375t0.1826171875-0.614990234375t0.222900390625-0.657958984375t0.260498046875-0.647216796875q0.2255859375,0.107421875,0.502197265625,0.26318359375t0.512939453125,0.365234375z M15.90380859375,12.59521484375q0,0.13427734375,0.0859375,0.13427734375q0.10205078125,0,0.244384765625-0.064453125t0.298095703125-0.169189453125t0.31689453125-0.233642578125t0.303466796875-0.25244140625t0.255126953125-0.23095703125t0.17724609375-0.171875q0.0537109375,0.04833984375,0.12890625,0.12353515625t0.13427734375,0.1396484375q-0.1396484375,0.1396484375-0.31689453125,0.3115234375t-0.378662109375,0.351806640625t-0.4189453125,0.34912109375t-0.432373046875,0.30078125t-0.4189453125,0.212158203125t-0.38671875,0.08056640625q-0.0966796875,0-0.236328125-0.088623046875t-0.2685546875-0.217529296875t-0.217529296875-0.271240234375t-0.088623046875-0.255126953125q0-0.2470703125,0.0322265625-0.515625q-0.24169921875,0.21484375-0.46728515625,0.408203125t-0.453857421875,0.362548828125t-0.46728515625,0.3115234375t-0.507568359375,0.244384765625q-0.08056640625,0.0322265625-0.1396484375,0.0322265625q-0.0537109375,0-0.1396484375-0.0537109375t-0.16650390625-0.136962890625t-0.1396484375-0.18798828125t-0.05908203125-0.201416015625q0-0.22021484375,0.083251953125-0.491455078125t0.24169921875-0.55859375t0.38671875-0.57470703125t0.518310546875-0.54248046875t0.63916015625-0.4619140625t0.74658203125-0.330322265625q0.0751953125,0.0107421875,0.193359375,0.067138671875t0.22021484375,0.115478515625q0.193359375-0.55322265625,0.443115234375-1.109130859375t0.53173828125-1.06884765625t0.588134765625-0.96142578125t0.6123046875-0.794921875t0.604248046875-0.561279296875t0.566650390625-0.26318359375q0.1181640625,0,0.249755859375,0.077880859375t0.249755859375,0.18798828125t0.201416015625,0.228271484375t0.104736328125,0.19873046875q0,0.2470703125-0.12353515625,0.57470703125t-0.341064453125,0.706298828125t-0.515625,0.792236328125t-0.641845703125,0.840576171875t-0.722412109375,0.851318359375t-0.760009765625,0.82177734375q-0.1611328125,0.5478515625-0.255126953125,1.044677734375t-0.093994140625,0.899658203125z M18.60009765625,6.02099609375q-0.09130859375,0-0.222900390625,0.13427734375t-0.29541015625,0.373291015625t-0.346435546875,0.566650390625t-0.37060546875,0.71435546875t-0.3759765625,0.82177734375t-0.3544921875,0.880859375q0.40283203125-0.494140625,0.765380859375-0.990966796875t0.636474609375-0.942626953125t0.43505859375-0.81640625t0.1611328125-0.6123046875q0-0.0322265625-0.002685546875-0.08056640625t-0.029541015625-0.04833984375z M13.5029296875,12.41259765625q0.17724609375,0,0.5263671875-0.249755859375t0.78955078125-0.668701171875q0.04833984375-0.2470703125,0.1181640625-0.502197265625t0.15576171875-0.518310546875q-0.3115234375,0.20947265625-0.609619140625,0.47802734375t-0.529052734375,0.53173828125t-0.373291015625,0.491455078125t-0.142333984375,0.346435546875q0,0.09130859375,0.064453125,0.09130859375z M21.3125,11.8701171875q-0.494140625,0.4833984375-0.931884765625,0.81103515625t-0.835205078125,0.5263671875t-0.760009765625,0.28466796875t-0.706298828125,0.0859375q-0.14501953125,0-0.322265625-0.107421875t-0.330322265625-0.260498046875t-0.255126953125-0.319580078125t-0.10205078125-0.28466796875q0-0.4404296875,0.120849609375-0.808349609375t0.319580078125-0.663330078125t0.453857421875-0.52099609375t0.53173828125-0.3759765625t0.550537109375-0.2255859375t0.5048828125-0.0751953125q0.16650390625,0,0.330322265625,0.0966796875t0.298095703125,0.236328125t0.217529296875,0.292724609375t0.083251953125,0.265869140625q0,0.1826171875-0.153076171875,0.373291015625t-0.432373046875,0.389404296875t-0.67138671875,0.405517578125t-0.86474609375,0.416259765625q-0.01611328125,0.12890625-0.01611328125,0.25244140625q0,0.16650390625,0.072509765625,0.2255859375t0.271240234375,0.05908203125q0.3544921875,0,0.668701171875-0.1181640625t0.604248046875-0.30615234375t0.55859375-0.4296875t0.53173828125-0.48876953125z M19.421875,10.52734375q-0.107421875,0-0.236328125,0.115478515625t-0.2578125,0.303466796875t-0.2470703125,0.432373046875t-0.2041015625,0.507568359375q0.19873046875-0.12890625,0.389404296875-0.27392578125t0.341064453125-0.303466796875t0.24169921875-0.324951171875t0.09130859375-0.3330078125q0-0.04833984375-0.029541015625-0.0859375t-0.088623046875-0.03759765625z M23.482421875,10.9677734375q-0.06982421875,0.20947265625-0.174560546875,0.47802734375t-0.201416015625,0.5263671875t-0.163818359375,0.46728515625t-0.067138671875,0.30078125q0,0.0322265625,0.0322265625,0.0322265625q0.05908203125,0,0.17724609375-0.06982421875t0.271240234375-0.1826171875t0.319580078125-0.2470703125t0.319580078125-0.265869140625t0.276611328125-0.239013671875t0.18798828125-0.1611328125q0.04833984375,0.04833984375,0.115478515625,0.12353515625t0.126220703125,0.1396484375q-0.1181640625,0.1181640625-0.29541015625,0.287353515625t-0.384033203125,0.346435546875t-0.4296875,0.3544921875t-0.43505859375,0.31689453125t-0.394775390625,0.2255859375t-0.30615234375,0.0859375q-0.08056640625,0-0.2041015625-0.056396484375t-0.236328125-0.1396484375t-0.193359375-0.185302734375t-0.08056640625-0.19873046875q0.08056640625-0.35986328125,0.1611328125-0.62841796875t0.150390625-0.459228515625t0.12353515625-0.308837890625l0.08056640625-0.17724609375q-0.064453125-0.02685546875-0.12353515625-0.05908203125l-0.1181640625-0.064453125q-0.0859375,0.09130859375-0.190673828125,0.193359375t-0.212158203125,0.2041015625t-0.21484375,0.19873046875t-0.193359375,0.17724609375l-0.2578125-0.26318359375q0.1396484375-0.13427734375,0.335693359375-0.324951171875t0.384033203125-0.384033203125q-0.13427734375-0.08056640625-0.24169921875-0.153076171875t-0.1826171875-0.131591796875q-0.09130859375-0.064453125-0.1611328125-0.1181640625q-0.0322265625-0.01611328125-0.0322265625-0.06982421875q0-0.05908203125,0.045654296875-0.169189453125t0.115478515625-0.236328125t0.150390625-0.2578125t0.15576171875-0.239013671875t0.131591796875-0.174560546875t0.072509765625-0.067138671875q0.0107421875,0,0.072509765625,0.02685546875t0.131591796875,0.061767578125t0.12890625,0.077880859375t0.0751953125,0.0751953125q0.00537109375,0.02685546875,0.0107421875,0.11279296875t0.0107421875,0.20947265625q0.20947265625,0.107421875,0.4296875,0.244384765625t0.40283203125,0.260498046875q0.21484375,0.1396484375,0.408203125,0.28466796875q0.06982421875,0.04296875,0.088623046875,0.107421875t0.002685546875,0.11279296875z M28.1767578125,11.8701171875q-0.494140625,0.4833984375-0.931884765625,0.81103515625t-0.835205078125,0.5263671875t-0.760009765625,0.28466796875t-0.706298828125,0.0859375q-0.14501953125,0-0.322265625-0.107421875t-0.330322265625-0.260498046875t-0.255126953125-0.319580078125t-0.10205078125-0.28466796875q0-0.4404296875,0.120849609375-0.808349609375t0.319580078125-0.663330078125t0.453857421875-0.52099609375t0.53173828125-0.3759765625t0.550537109375-0.2255859375t0.5048828125-0.0751953125q0.16650390625,0,0.330322265625,0.0966796875t0.298095703125,0.236328125t0.217529296875,0.292724609375t0.083251953125,0.265869140625q0,0.1826171875-0.153076171875,0.373291015625t-0.432373046875,0.389404296875t-0.67138671875,0.405517578125t-0.86474609375,0.416259765625q-0.01611328125,0.12890625-0.01611328125,0.25244140625q0,0.16650390625,0.072509765625,0.2255859375t0.271240234375,0.05908203125q0.3544921875,0,0.668701171875-0.1181640625t0.604248046875-0.30615234375t0.55859375-0.4296875t0.53173828125-0.48876953125z M26.2861328125,10.52734375q-0.107421875,0-0.236328125,0.115478515625t-0.2578125,0.303466796875t-0.2470703125,0.432373046875t-0.2041015625,0.507568359375q0.19873046875-0.12890625,0.389404296875-0.27392578125t0.341064453125-0.303466796875t0.24169921875-0.324951171875t0.09130859375-0.3330078125q0-0.04833984375-0.029541015625-0.0859375t-0.088623046875-0.03759765625z M29.5732421875,14.35693359375q0,0.171875-0.064453125,0.367919921875t-0.233642578125,0.37060546875t-0.4619140625,0.3115234375t-0.743896484375,0.196044921875q-0.03759765625-0.04296875-0.072509765625-0.126220703125t-0.061767578125-0.179931640625t-0.051025390625-0.185302734375t-0.045654296875-0.147705078125q0.1396484375-0.01611328125,0.3330078125-0.0537109375t0.37060546875-0.10205078125t0.303466796875-0.158447265625t0.126220703125-0.228271484375q0-0.00537109375-0.008056640625-0.029541015625t-0.03759765625-0.04833984375t-0.08056640625-0.04296875t-0.131591796875-0.018798828125q-0.1181640625,0-0.21484375,0.0107421875t-0.16650390625,0.018798828125t-0.107421875,0.0107421875t-0.03759765625-0.018798828125q0.064453125-0.15576171875,0.15576171875-0.34375t0.17724609375-0.37060546875l-0.14501953125,0q-0.0966796875,0-0.22021484375-0.061767578125t-0.25244140625-0.16650390625t-0.249755859375-0.2470703125t-0.201416015625-0.298095703125q-0.0322265625-0.05908203125-0.04296875-0.13427734375t-0.0107421875-0.193359375q0-0.30615234375,0.093994140625-0.614990234375t0.260498046875-0.588134765625t0.400146484375-0.523681640625t0.507568359375-0.421630859375t0.58544921875-0.279296875t0.6337890625-0.10205078125q0.04833984375,0,0.131591796875,0.051025390625t0.179931640625,0.136962890625t0.196044921875,0.193359375t0.179931640625,0.217529296875t0.131591796875,0.21484375t0.051025390625,0.185302734375q-0.02685546875,0.10205078125-0.16650390625,0.222900390625t-0.330322265625,0.2255859375t-0.400146484375,0.174560546875t-0.365234375,0.06982421875q-0.09130859375,0-0.09130859375-0.0537109375q0-0.05908203125,0.08056640625-0.174560546875t0.179931640625-0.25244140625t0.179931640625-0.27392578125t0.08056640625-0.233642578125q0-0.04833984375-0.024169921875-0.08056640625t-0.067138671875-0.0322265625q-0.1181640625,0-0.2470703125,0.107421875t-0.2578125,0.28466796875t-0.2470703125,0.405517578125t-0.206787109375,0.469970703125t-0.142333984375,0.4833984375t-0.0537109375,0.4404296875q0,0.1181640625,0.06982421875,0.163818359375t0.21484375,0.045654296875q0.35986328125,0,0.695556640625-0.120849609375t0.64453125-0.3115234375t0.588134765625-0.427001953125t0.5263671875-0.47265625q0.05908203125,0.06982421875,0.14501953125,0.136962890625t0.12890625,0.115478515625q-0.28466796875,0.30078125-0.59619140625,0.5693359375t-0.652587890625,0.48876953125t-0.708984375,0.3759765625t-0.770751953125,0.2255859375l-0.193359375,0.46728515625q0.0966796875-0.02685546875,0.174560546875-0.04296875t0.206787109375-0.01611328125q0.05908203125,0,0.12890625,0.03759765625t0.131591796875,0.0966796875t0.110107421875,0.13427734375t0.05908203125,0.150390625z M32.07080078125,12.6435546875q0,0.1611328125,0.1181640625,0.1611328125q0.12353515625,0,0.32763671875-0.196044921875t0.42431640625-0.496826171875q-0.0107421875-0.05908203125-0.013427734375-0.104736328125t-0.002685546875-0.083251953125q0-0.107421875,0.024169921875-0.255126953125t0.120849609375-0.335693359375q0.064453125-0.14501953125,0.15576171875-0.28466796875q0.0751953125-0.12353515625,0.1826171875-0.265869140625t0.236328125-0.265869140625l0.0322265625-0.0322265625q0.0537109375,0.064453125,0.142333984375,0.174560546875t0.17724609375,0.2255859375t0.15576171875,0.212158203125t0.083251953125,0.13427734375q0,0.23095703125-0.083251953125,0.4619140625t-0.222900390625,0.45654296875q0.322265625-0.021484375,0.598876953125-0.163818359375t0.577392578125-0.464599609375q0.04833984375,0.04833984375,0.126220703125,0.131591796875t0.126220703125,0.142333984375q-0.2255859375,0.236328125-0.443115234375,0.39208984375t-0.43505859375,0.2470703125t-0.443115234375,0.131591796875t-0.4619140625,0.040283203125q-0.1826171875,0.193359375-0.39208984375,0.3544921875t-0.427001953125,0.279296875t-0.432373046875,0.1826171875t-0.408203125,0.064453125q-0.1611328125,0-0.3330078125-0.0966796875t-0.3115234375-0.239013671875t-0.23095703125-0.303466796875t-0.09130859375-0.28466796875q0-0.408203125,0.110107421875-0.81103515625t0.34375-0.754638671875t0.59619140625-0.620361328125t0.862060546875-0.408203125q0.01611328125-0.0107421875,0.056396484375-0.01611328125t0.067138671875-0.00537109375q0.0751953125,0,0.158447265625,0.056396484375t0.15576171875,0.126220703125t0.120849609375,0.136962890625t0.04833984375,0.088623046875q-0.0107421875,0.02685546875-0.08056640625,0.067138671875t-0.18798828125,0.136962890625t-0.279296875,0.276611328125t-0.3544921875,0.475341796875q-0.2900390625,0.43505859375-0.39208984375,0.786865234375t-0.10205078125,0.545166015625z "/></svg>
</svg>
	</g>


<svg xmlns="http://www.w3.org/2000/svg" xmlns:xlink="http://www.w3.org/1999/xlink" version="1.1" width="268" height="268" viewBox="0 0 2000 2000" x="68" y="6.1" shape-rendering="crispEdges"><defs/><rect x="0" y="0" width="2000" height="2000" fill="#ffffff"/><svg viewBox="0 0 4 4" x="629" y="173" width="57" height="57" shape-rendering="auto"><path fill="#ff00fa" d="M3.15,0H0.85A0.85,0.85,0,0,0,0,0.85v2.3A0.85,0.85,0,0,0,0.85,4H4V0Z"/></svg><svg viewBox="0 0 4 4" x="686" y="173" width="57" height="57" shape-rendering="auto"><path fill="#ff00fa" d="M0.85,4h2.3A0.85,0.85,0,0,0,4,3.15V0.85A0.85,0.85,0,0,0,3.15,0H0V4Z"/></svg><svg viewBox="0 0 4 4" x="1028" y="173" width="57" height="57" shape-rendering="auto"><path fill="#ff00fa" d="M4,3.15V0.85A0.85,0.85,0,0,0,3.15,0H0.85A0.85,0.85,0,0,0,0,0.85V4H4Z"/></svg><svg viewBox="0 0 4 4" x="1256" y="173" width="57" height="57" shape-rendering="auto"><path fill="#ff00fa" d="M4,3.15V0.85A0.85,0.85,0,0,0,3.15,0H0.85A0.85,0.85,0,0,0,0,0.85V4H4Z"/></svg><svg viewBox="0 0 4 4" x="1313" y="173" width="57" height="57" shape-rendering="auto"><path fill="#ff00fa" d="M0.85,4A0.85,0.85,0,0,1,0,3.15V4Z"/></svg><svg viewBox="0 0 4 4" x="857" y="230" width="57" height="57" shape-rendering="auto"><path fill="#ff00fa" d="M3.15,4A0.85,0.85,0,0,0,4,3.15V4Z"/></svg><svg viewBox="0 0 4 4" x="914" y="230" width="57" height="57" shape-rendering="auto"><path fill="#ff00fa" d="M4,3.15V0.85A0.85,0.85,0,0,0,3.15,0H0.85A0.85,0.85,0,0,0,0,0.85V4H4Z"/></svg><svg viewBox="0 0 4 4" x="1028" y="230" width="57" height="57" shape-rendering="auto"><path fill="#ff00fa" d="M0,3.15A0.85,0.85,0,0,0,0.85,4h2.3A0.85,0.85,0,0,0,4,3.15V0H0V3.15Z"/></svg><svg viewBox="0 0 4 4" x="1256" y="230" width="57" height="57" shape-rendering="auto"><path fill="#ff00fa" d="M0,3.15A0.85,0.85,0,0,0,0.85,4H4V0H0V3.15Z"/></svg><svg viewBox="0 0 4 4" x="1313" y="230" width="57" height="57" shape-rendering="auto"><path fill="#ff00fa" d="M3.15,0A0.85,0.85,0,0,1,4,0.85V4H0V0H3.15Z"/></svg><svg viewBox="0 0 4 4" x="629" y="287" width="57" height="57" shape-rendering="auto"><path fill="#ff00fa" d="M4,3.15V0.85A0.85,0.85,0,0,0,3.15,0H0.85A0.85,0.85,0,0,0,0,0.85V4H4Z"/></svg><svg viewBox="0 0 4 4" x="686" y="287" width="57" height="57" shape-rendering="auto"><path fill="#ff00fa" d="M0.85,4A0.85,0.85,0,0,1,0,3.15V4Z"/></svg><svg viewBox="0 0 4 4" x="800" y="287" width="57" height="57" shape-rendering="auto"><path fill="#ff00fa" d="M0.85,0A0.85,0.85,0,0,0,0,0.85V4H4V0H0.85Z"/></svg><svg viewBox="0 0 4 4" x="857" y="287" width="57" height="57" shape-rendering="auto"><rect fill="#ff00fa" width="4" height="4"/></svg><svg viewBox="0 0 4 4" x="914" y="287" width="57" height="57" shape-rendering="auto"><rect fill="#ff00fa" width="4" height="4"/></svg><svg viewBox="0 0 4 4" x="1199" y="287" width="57" height="57" shape-rendering="auto"><rect fill="#ff00fa" width="4" height="4" rx="0.85"/></svg><svg viewBox="0 0 4 4" x="1256" y="287" width="57" height="57" shape-rendering="auto"><path fill="#ff00fa" d="M4,0.85V0H3.15A0.85,0.85,0,0,1,4,0.85Z"/></svg><svg viewBox="0 0 4 4" x="1313" y="287" width="57" height="57" shape-rendering="auto"><rect fill="#ff00fa" width="4" height="4"/></svg><svg viewBox="0 0 4 4" x="629" y="344" width="57" height="57" shape-rendering="auto"><rect fill="#ff00fa" width="4" height="4"/></svg><svg viewBox="0 0 4 4" x="686" y="344" width="57" height="57" shape-rendering="auto"><path fill="#ff00fa" d="M3.15,0A0.85,0.85,0,0,1,4,0.85V4H0V0H3.15Z"/></svg><svg viewBox="0 0 4 4" x="743" y="344" width="57" height="57" shape-rendering="auto"><path fill="#ff00fa" d="M3.15,4A0.85,0.85,0,0,0,4,3.15V4Z"/></svg><svg viewBox="0 0 4 4" x="743" y="344" width="57" height="57" shape-rendering="auto"><path fill="#ff00fa" d="M0.85,4A0.85,0.85,0,0,1,0,3.15V4Z"/></svg><svg viewBox="0 0 4 4" x="800" y="344" width="57" height="57" shape-rendering="auto"><rect fill="#ff00fa" width="4" height="4"/></svg><svg viewBox="0 0 4 4" x="857" y="344" width="57" height="57" shape-rendering="auto"><path fill="#ff00fa" d="M0.85,0H0V0.85A0.85,0.85,0,0,1,0.85,0Z"/></svg><svg viewBox="0 0 4 4" x="857" y="344" width="57" height="57" shape-rendering="auto"><path fill="#ff00fa" d="M4,0.85V0H3.15A0.85,0.85,0,0,1,4,0.85Z"/></svg><svg viewBox="0 0 4 4" x="914" y="344" width="57" height="57" shape-rendering="auto"><path fill="#ff00fa" d="M0,3.15A0.85,0.85,0,0,0,0.85,4h2.3A0.85,0.85,0,0,0,4,3.15V0H0V3.15Z"/></svg><svg viewBox="0 0 4 4" x="1028" y="344" width="57" height="57" shape-rendering="auto"><path fill="#ff00fa" d="M3.15,0H0.85A0.85,0.85,0,0,0,0,0.85v2.3A0.85,0.85,0,0,0,0.85,4H4V0Z"/></svg><svg viewBox="0 0 4 4" x="1085" y="344" width="57" height="57" shape-rendering="auto"><rect fill="#ff00fa" width="4" height="4"/></svg><svg viewBox="0 0 4 4" x="1142" y="344" width="57" height="57" shape-rendering="auto"><path fill="#ff00fa" d="M3.15,0A0.85,0.85,0,0,1,4,0.85V4H0V0H3.15Z"/></svg><svg viewBox="0 0 4 4" x="1199" y="344" width="57" height="57" shape-rendering="auto"><path fill="#ff00fa" d="M0.85,4A0.85,0.85,0,0,1,0,3.15V4Z"/></svg><svg viewBox="0 0 4 4" x="1313" y="344" width="57" height="57" shape-rendering="auto"><path fill="#ff00fa" d="M0,3.15A0.85,0.85,0,0,0,0.85,4h2.3A0.85,0.85,0,0,0,4,3.15V0H0V3.15Z"/></svg><svg viewBox="0 0 4 4" x="629" y="401" width="57" height="57" shape-rendering="auto"><path fill="#ff00fa" d="M0,3.15A0.85,0.85,0,0,0,0.85,4H4V0H0V3.15Z"/></svg><svg viewBox="0 0 4 4" x="686" y="401" width="57" height="57" shape-rendering="auto"><rect fill="#ff00fa" width="4" height="4"/></svg><svg viewBox="0 0 4 4" x="743" y="401" width="57" height="57" shape-rendering="auto"><rect fill="#ff00fa" width="4" height="4"/></svg><svg viewBox="0 0 4 4" x="800" y="401" width="57" height="57" shape-rendering="auto"><path fill="#ff00fa" d="M4,3.15A0.85,0.85,0,0,1,3.15,4H0V0H4V3.15Z"/></svg><svg viewBox="0 0 4 4" x="1085" y="401" width="57" height="57" shape-rendering="auto"><path fill="#ff00fa" d="M4,0.85V0H3.15A0.85,0.85,0,0,1,4,0.85Z"/></svg><svg viewBox="0 0 4 4" x="1142" y="401" width="57" height="57" shape-rendering="auto"><rect fill="#ff00fa" width="4" height="4"/></svg><svg viewBox="0 0 4 4" x="1199" y="401" width="57" height="57" shape-rendering="auto"><rect fill="#ff00fa" width="4" height="4"/></svg><svg viewBox="0 0 4 4" x="1256" y="401" width="57" height="57" shape-rendering="auto"><path fill="#ff00fa" d="M0.85,4h2.3A0.85,0.85,0,0,0,4,3.15V0.85A0.85,0.85,0,0,0,3.15,0H0V4Z"/></svg><svg viewBox="0 0 4 4" x="629" y="458" width="57" height="57" shape-rendering="auto"><path fill="#ff00fa" d="M4,0.85V0H3.15A0.85,0.85,0,0,1,4,0.85Z"/></svg><svg viewBox="0 0 4 4" x="686" y="458" width="57" height="57" shape-rendering="auto"><path fill="#ff00fa" d="M0,3.15A0.85,0.85,0,0,0,0.85,4h2.3A0.85,0.85,0,0,0,4,3.15V0H0V3.15Z"/></svg><svg viewBox="0 0 4 4" x="743" y="458" width="57" height="57" shape-rendering="auto"><path fill="#ff00fa" d="M0.85,0H0V0.85A0.85,0.85,0,0,1,0.85,0Z"/></svg><svg viewBox="0 0 4 4" x="857" y="458" width="57" height="57" shape-rendering="auto"><path fill="#ff00fa" d="M4,3.15V0.85A0.85,0.85,0,0,0,3.15,0H0.85A0.85,0.85,0,0,0,0,0.85V4H4Z"/></svg><svg viewBox="0 0 4 4" x="1142" y="458" width="57" height="57" shape-rendering="auto"><path fill="#ff00fa" d="M0,3.15A0.85,0.85,0,0,0,0.85,4H4V0H0V3.15Z"/></svg><svg viewBox="0 0 4 4" x="1199" y="458" width="57" height="57" shape-rendering="auto"><rect fill="#ff00fa" width="4" height="4"/></svg><svg viewBox="0 0 4 4" x="1256" y="458" width="57" height="57" shape-rendering="auto"><path fill="#ff00fa" d="M0.85,0H0V0.85A0.85,0.85,0,0,1,0.85,0Z"/></svg><svg viewBox="0 0 4 4" x="629" y="515" width="57" height="57" shape-rendering="auto"><rect fill="#ff00fa" width="4" height="4" rx="0.85"/></svg><svg viewBox="0 0 4 4" x="743" y="515" width="57" height="57" shape-rendering="auto"><rect fill="#ff00fa" width="4" height="4" rx="0.85"/></svg><svg viewBox="0 0 4 4" x="857" y="515" width="57" height="57" shape-rendering="auto"><path fill="#ff00fa" d="M0,3.15A0.85,0.85,0,0,0,0.85,4h2.3A0.85,0.85,0,0,0,4,3.15V0H0V3.15Z"/></svg><svg viewBox="0 0 4 4" x="971" y="515" width="57" height="57" shape-rendering="auto"><rect fill="#ff00fa" width="4" height="4" rx="0.85"/></svg><svg viewBox="0 0 4 4" x="1028" y="515" width="57" height="57" shape-rendering="auto"><path fill="#ff00fa" d="M3.15,4A0.85,0.85,0,0,0,4,3.15V4Z"/></svg><svg viewBox="0 0 4 4" x="1085" y="515" width="57" height="57" shape-rendering="auto"><path fill="#ff00fa" d="M4,3.15V0.85A0.85,0.85,0,0,0,3.15,0H0.85A0.85,0.85,0,0,0,0,0.85V4H4Z"/></svg><svg viewBox="0 0 4 4" x="1142" y="515" width="57" height="57" shape-rendering="auto"><path fill="#ff00fa" d="M4,0.85V0H3.15A0.85,0.85,0,0,1,4,0.85Z"/></svg><svg viewBox="0 0 4 4" x="1199" y="515" width="57" height="57" shape-rendering="auto"><path fill="#ff00fa" d="M0,3.15A0.85,0.85,0,0,0,0.85,4h2.3A0.85,0.85,0,0,0,4,3.15V0H0V3.15Z"/></svg><svg viewBox="0 0 4 4" x="1256" y="515" width="57" height="57" shape-rendering="auto"><path fill="#ff00fa" d="M3.15,4A0.85,0.85,0,0,0,4,3.15V4Z"/></svg><svg viewBox="0 0 4 4" x="1313" y="515" width="57" height="57" shape-rendering="auto"><path fill="#ff00fa" d="M4,3.15V0.85A0.85,0.85,0,0,0,3.15,0H0.85A0.85,0.85,0,0,0,0,0.85V4H4Z"/></svg><svg viewBox="0 0 4 4" x="686" y="572" width="57" height="57" shape-rendering="auto"><rect fill="#ff00fa" width="4" height="4" rx="0.85"/></svg><svg viewBox="0 0 4 4" x="800" y="572" width="57" height="57" shape-rendering="auto"><rect fill="#ff00fa" width="4" height="4" rx="0.85"/></svg><svg viewBox="0 0 4 4" x="1028" y="572" width="57" height="57" shape-rendering="auto"><path fill="#ff00fa" d="M3.15,0H0.85A0.85,0.85,0,0,0,0,0.85v2.3A0.85,0.85,0,0,0,0.85,4H4V0Z"/></svg><svg viewBox="0 0 4 4" x="1085" y="572" width="57" height="57" shape-rendering="auto"><path fill="#ff00fa" d="M4,3.15A0.85,0.85,0,0,1,3.15,4H0V0H4V3.15Z"/></svg><svg viewBox="0 0 4 4" x="1256" y="572" width="57" height="57" shape-rendering="auto"><path fill="#ff00fa" d="M0.85,0A0.85,0.85,0,0,0,0,0.85V4H4V0H0.85Z"/></svg><svg viewBox="0 0 4 4" x="1313" y="572" width="57" height="57" shape-rendering="auto"><rect fill="#ff00fa" width="4" height="4"/></svg><svg viewBox="0 0 4 4" x="1370" y="572" width="57" height="57" shape-rendering="auto"><path fill="#ff00fa" d="M0.85,4A0.85,0.85,0,0,1,0,3.15V4Z"/></svg><svg viewBox="0 0 4 4" x="173" y="629" width="57" height="57" shape-rendering="auto"><path fill="#ff00fa" d="M3.15,0H0.85A0.85,0.85,0,0,0,0,0.85v2.3A0.85,0.85,0,0,0,0.85,4H4V0Z"/></svg><svg viewBox="0 0 4 4" x="230" y="629" width="57" height="57" shape-rendering="auto"><rect fill="#ff00fa" width="4" height="4"/></svg><svg viewBox="0 0 4 4" x="287" y="629" width="57" height="57" shape-rendering="auto"><rect fill="#ff00fa" width="4" height="4"/></svg><svg viewBox="0 0 4 4" x="344" y="629" width="57" height="57" shape-rendering="auto"><path fill="#ff00fa" d="M3.15,0A0.85,0.85,0,0,1,4,0.85V4H0V0H3.15Z"/></svg><svg viewBox="0 0 4 4" x="515" y="629" width="57" height="57" shape-rendering="auto"><rect fill="#ff00fa" width="4" height="4" rx="0.85"/></svg><svg viewBox="0 0 4 4" x="572" y="629" width="57" height="57" shape-rendering="auto"><path fill="#ff00fa" d="M3.15,4A0.85,0.85,0,0,0,4,3.15V4Z"/></svg><svg viewBox="0 0 4 4" x="629" y="629" width="57" height="57" shape-rendering="auto"><path fill="#ff00fa" d="M4,3.15V0.85A0.85,0.85,0,0,0,3.15,0H0.85A0.85,0.85,0,0,0,0,0.85V4H4Z"/></svg><svg viewBox="0 0 4 4" x="686" y="629" width="57" height="57" shape-rendering="auto"><path fill="#ff00fa" d="M0.85,4A0.85,0.85,0,0,1,0,3.15V4Z"/></svg><svg viewBox="0 0 4 4" x="971" y="629" width="57" height="57" shape-rendering="auto"><rect fill="#ff00fa" width="4" height="4" rx="0.85"/></svg><svg viewBox="0 0 4 4" x="1142" y="629" width="57" height="57" shape-rendering="auto"><rect fill="#ff00fa" width="4" height="4" rx="0.85"/></svg><svg viewBox="0 0 4 4" x="1256" y="629" width="57" height="57" shape-rendering="auto"><rect fill="#ff00fa" width="4" height="4"/></svg><svg viewBox="0 0 4 4" x="1313" y="629" width="57" height="57" shape-rendering="auto"><rect fill="#ff00fa" width="4" height="4"/></svg><svg viewBox="0 0 4 4" x="1370" y="629" width="57" height="57" shape-rendering="auto"><path fill="#ff00fa" d="M0.85,4h2.3A0.85,0.85,0,0,0,4,3.15V0.85A0.85,0.85,0,0,0,3.15,0H0V4Z"/></svg><svg viewBox="0 0 4 4" x="1541" y="629" width="57" height="57" shape-rendering="auto"><path fill="#ff00fa" d="M3.15,0H0.85A0.85,0.85,0,0,0,0,0.85v2.3A0.85,0.85,0,0,0,0.85,4H4V0Z"/></svg><svg viewBox="0 0 4 4" x="1598" y="629" width="57" height="57" shape-rendering="auto"><rect fill="#ff00fa" width="4" height="4"/></svg><svg viewBox="0 0 4 4" x="1655" y="629" width="57" height="57" shape-rendering="auto"><path fill="#ff00fa" d="M0.85,4h2.3A0.85,0.85,0,0,0,4,3.15V0.85A0.85,0.85,0,0,0,3.15,0H0V4Z"/></svg><svg viewBox="0 0 4 4" x="1769" y="629" width="57" height="57" shape-rendering="auto"><rect fill="#ff00fa" width="4" height="4" rx="0.85"/></svg><svg viewBox="0 0 4 4" x="287" y="686" width="57" height="57" shape-rendering="auto"><path fill="#ff00fa" d="M4,0.85V0H3.15A0.85,0.85,0,0,1,4,0.85Z"/></svg><svg viewBox="0 0 4 4" x="344" y="686" width="57" height="57" shape-rendering="auto"><path fill="#ff00fa" d="M0,3.15A0.85,0.85,0,0,0,0.85,4h2.3A0.85,0.85,0,0,0,4,3.15V0H0V3.15Z"/></svg><svg viewBox="0 0 4 4" x="458" y="686" width="57" height="57" shape-rendering="auto"><rect fill="#ff00fa" width="4" height="4" rx="0.85"/></svg><svg viewBox="0 0 4 4" x="515" y="686" width="57" height="57" shape-rendering="auto"><path fill="#ff00fa" d="M3.15,4A0.85,0.85,0,0,0,4,3.15V4Z"/></svg><svg viewBox="0 0 4 4" x="572" y="686" width="57" height="57" shape-rendering="auto"><path fill="#ff00fa" d="M0.85,0A0.85,0.85,0,0,0,0,0.85V4H4V0H0.85Z"/></svg><svg viewBox="0 0 4 4" x="629" y="686" width="57" height="57" shape-rendering="auto"><rect fill="#ff00fa" width="4" height="4"/></svg><svg viewBox="0 0 4 4" x="686" y="686" width="57" height="57" shape-rendering="auto"><path fill="#ff00fa" d="M0.85,4h2.3A0.85,0.85,0,0,0,4,3.15V0.85A0.85,0.85,0,0,0,3.15,0H0V4Z"/></svg><svg viewBox="0 0 4 4" x="1085" y="686" width="57" height="57" shape-rendering="auto"><rect fill="#ff00fa" width="4" height="4" rx="0.85"/></svg><svg viewBox="0 0 4 4" x="1256" y="686" width="57" height="57" shape-rendering="auto"><path fill="#ff00fa" d="M0,3.15A0.85,0.85,0,0,0,0.85,4h2.3A0.85,0.85,0,0,0,4,3.15V0H0V3.15Z"/></svg><svg viewBox="0 0 4 4" x="1313" y="686" width="57" height="57" shape-rendering="auto"><path fill="#ff00fa" d="M0.85,0H0V0.85A0.85,0.85,0,0,1,0.85,0Z"/></svg><svg viewBox="0 0 4 4" x="1427" y="686" width="57" height="57" shape-rendering="auto"><path fill="#ff00fa" d="M3.15,0H0.85A0.85,0.85,0,0,0,0,0.85v2.3A0.85,0.85,0,0,0,0.85,4H4V0Z"/></svg><svg viewBox="0 0 4 4" x="1484" y="686" width="57" height="57" shape-rendering="auto"><path fill="#ff00fa" d="M3.15,0A0.85,0.85,0,0,1,4,0.85V4H0V0H3.15Z"/></svg><svg viewBox="0 0 4 4" x="1541" y="686" width="57" height="57" shape-rendering="auto"><path fill="#ff00fa" d="M4,0.85V0H3.15A0.85,0.85,0,0,1,4,0.85Z"/></svg><svg viewBox="0 0 4 4" x="1541" y="686" width="57" height="57" shape-rendering="auto"><path fill="#ff00fa" d="M3.15,4A0.85,0.85,0,0,0,4,3.15V4Z"/></svg><svg viewBox="0 0 4 4" x="1541" y="686" width="57" height="57" shape-rendering="auto"><path fill="#ff00fa" d="M0.85,4A0.85,0.85,0,0,1,0,3.15V4Z"/></svg><svg viewBox="0 0 4 4" x="1598" y="686" width="57" height="57" shape-rendering="auto"><rect fill="#ff00fa" width="4" height="4"/></svg><svg viewBox="0 0 4 4" x="1655" y="686" width="57" height="57" shape-rendering="auto"><path fill="#ff00fa" d="M0.85,0H0V0.85A0.85,0.85,0,0,1,0.85,0Z"/></svg><svg viewBox="0 0 4 4" x="1712" y="686" width="57" height="57" shape-rendering="auto"><path fill="#ff00fa" d="M4,3.15V0.85A0.85,0.85,0,0,0,3.15,0H0.85A0.85,0.85,0,0,0,0,0.85V4H4Z"/></svg><svg viewBox="0 0 4 4" x="173" y="743" width="57" height="57" shape-rendering="auto"><path fill="#ff00fa" d="M4,3.15V0.85A0.85,0.85,0,0,0,3.15,0H0.85A0.85,0.85,0,0,0,0,0.85V4H4Z"/></svg><svg viewBox="0 0 4 4" x="401" y="743" width="57" height="57" shape-rendering="auto"><rect fill="#ff00fa" width="4" height="4" rx="0.85"/></svg><svg viewBox="0 0 4 4" x="515" y="743" width="57" height="57" shape-rendering="auto"><path fill="#ff00fa" d="M3.15,0H0.85A0.85,0.85,0,0,0,0,0.85v2.3A0.85,0.85,0,0,0,0.85,4H4V0Z"/></svg><svg viewBox="0 0 4 4" x="572" y="743" width="57" height="57" shape-rendering="auto"><path fill="#ff00fa" d="M4,3.15A0.85,0.85,0,0,1,3.15,4H0V0H4V3.15Z"/></svg><svg viewBox="0 0 4 4" x="629" y="743" width="57" height="57" shape-rendering="auto"><path fill="#ff00fa" d="M0.85,0H0V0.85A0.85,0.85,0,0,1,0.85,0Z"/></svg><svg viewBox="0 0 4 4" x="971" y="743" width="57" height="57" shape-rendering="auto"><rect fill="#ff00fa" width="4" height="4" rx="0.85"/></svg><svg viewBox="0 0 4 4" x="1142" y="743" width="57" height="57" shape-rendering="auto"><path fill="#ff00fa" d="M0.85,0A0.85,0.85,0,0,0,0,0.85V4H4V0H0.85Z"/></svg><svg viewBox="0 0 4 4" x="1199" y="743" width="57" height="57" shape-rendering="auto"><path fill="#ff00fa" d="M0.85,4h2.3A0.85,0.85,0,0,0,4,3.15V0.85A0.85,0.85,0,0,0,3.15,0H0V4Z"/></svg><svg viewBox="0 0 4 4" x="1427" y="743" width="57" height="57" shape-rendering="auto"><path fill="#ff00fa" d="M4,0.85V0H3.15A0.85,0.85,0,0,1,4,0.85Z"/></svg><svg viewBox="0 0 4 4" x="1484" y="743" width="57" height="57" shape-rendering="auto"><rect fill="#ff00fa" width="4" height="4"/></svg><svg viewBox="0 0 4 4" x="1541" y="743" width="57" height="57" shape-rendering="auto"><rect fill="#ff00fa" width="4" height="4"/></svg><svg viewBox="0 0 4 4" x="1598" y="743" width="57" height="57" shape-rendering="auto"><path fill="#ff00fa" d="M4,3.15A0.85,0.85,0,0,1,3.15,4H0V0H4V3.15Z"/></svg><svg viewBox="0 0 4 4" x="1712" y="743" width="57" height="57" shape-rendering="auto"><rect fill="#ff00fa" width="4" height="4"/></svg><svg viewBox="0 0 4 4" x="173" y="800" width="57" height="57" shape-rendering="auto"><rect fill="#ff00fa" width="4" height="4"/></svg><svg viewBox="0 0 4 4" x="230" y="800" width="57" height="57" shape-rendering="auto"><path fill="#ff00fa" d="M0.85,4A0.85,0.85,0,0,1,0,3.15V4Z"/></svg><svg viewBox="0 0 4 4" x="287" y="800" width="57" height="57" shape-rendering="auto"><rect fill="#ff00fa" width="4" height="4" rx="0.85"/></svg><svg viewBox="0 0 4 4" x="401" y="800" width="57" height="57" shape-rendering="auto"><path fill="#ff00fa" d="M3.15,4A0.85,0.85,0,0,0,4,3.15V4Z"/></svg><svg viewBox="0 0 4 4" x="458" y="800" width="57" height="57" shape-rendering="auto"><path fill="#ff00fa" d="M4,3.15V0.85A0.85,0.85,0,0,0,3.15,0H0.85A0.85,0.85,0,0,0,0,0.85V4H4Z"/></svg><svg viewBox="0 0 4 4" x="515" y="800" width="57" height="57" shape-rendering="auto"><path fill="#ff00fa" d="M0.85,4A0.85,0.85,0,0,1,0,3.15V4Z"/></svg><svg viewBox="0 0 4 4" x="629" y="800" width="57" height="57" shape-rendering="auto"><path fill="#ff00fa" d="M4,3.15V0.85A0.85,0.85,0,0,0,3.15,0H0.85A0.85,0.85,0,0,0,0,0.85V4H4Z"/></svg><svg viewBox="0 0 4 4" x="686" y="800" width="57" height="57" shape-rendering="auto"><path fill="#ff00fa" d="M0.85,4A0.85,0.85,0,0,1,0,3.15V4Z"/></svg><svg viewBox="0 0 4 4" x="800" y="800" width="57" height="57" shape-rendering="auto"><path fill="#ff00fa" d="M0.85,0A0.85,0.85,0,0,0,0,0.85V4H4V0H0.85Z"/></svg><svg viewBox="0 0 4 4" x="857" y="800" width="57" height="57" shape-rendering="auto"><rect fill="#ff00fa" width="4" height="4"/></svg><svg viewBox="0 0 4 4" x="914" y="800" width="57" height="57" shape-rendering="auto"><path fill="#ff00fa" d="M0.85,4h2.3A0.85,0.85,0,0,0,4,3.15V0.85A0.85,0.85,0,0,0,3.15,0H0V4Z"/></svg><svg viewBox="0 0 4 4" x="1028" y="800" width="57" height="57" shape-rendering="auto"><path fill="#ff00fa" d="M4,3.15V0.85A0.85,0.85,0,0,0,3.15,0H0.85A0.85,0.85,0,0,0,0,0.85V4H4Z"/></svg><svg viewBox="0 0 4 4" x="1085" y="800" width="57" height="57" shape-rendering="auto"><path fill="#ff00fa" d="M0.85,4A0.85,0.85,0,0,1,0,3.15V4Z"/></svg><svg viewBox="0 0 4 4" x="1142" y="800" width="57" height="57" shape-rendering="auto"><path fill="#ff00fa" d="M0,3.15A0.85,0.85,0,0,0,0.85,4h2.3A0.85,0.85,0,0,0,4,3.15V0H0V3.15Z"/></svg><svg viewBox="0 0 4 4" x="1199" y="800" width="57" height="57" shape-rendering="auto"><path fill="#ff00fa" d="M0.85,0H0V0.85A0.85,0.85,0,0,1,0.85,0Z"/></svg><svg viewBox="0 0 4 4" x="1313" y="800" width="57" height="57" shape-rendering="auto"><rect fill="#ff00fa" width="4" height="4" rx="0.85"/></svg><svg viewBox="0 0 4 4" x="1427" y="800" width="57" height="57" shape-rendering="auto"><path fill="#ff00fa" d="M3.15,4A0.85,0.85,0,0,0,4,3.15V4Z"/></svg><svg viewBox="0 0 4 4" x="1484" y="800" width="57" height="57" shape-rendering="auto"><rect fill="#ff00fa" width="4" height="4"/></svg><svg viewBox="0 0 4 4" x="1541" y="800" width="57" height="57" shape-rendering="auto"><path fill="#ff00fa" d="M0.85,0H0V0.85A0.85,0.85,0,0,1,0.85,0Z"/></svg><svg viewBox="0 0 4 4" x="1712" y="800" width="57" height="57" shape-rendering="auto"><path fill="#ff00fa" d="M0,3.15A0.85,0.85,0,0,0,0.85,4h2.3A0.85,0.85,0,0,0,4,3.15V0H0V3.15Z"/></svg><svg viewBox="0 0 4 4" x="173" y="857" width="57" height="57" shape-rendering="auto"><rect fill="#ff00fa" width="4" height="4"/></svg><svg viewBox="0 0 4 4" x="230" y="857" width="57" height="57" shape-rendering="auto"><path fill="#ff00fa" d="M3.15,0A0.85,0.85,0,0,1,4,0.85V4H0V0H3.15Z"/></svg><svg viewBox="0 0 4 4" x="401" y="857" width="57" height="57" shape-rendering="auto"><path fill="#ff00fa" d="M0.85,0A0.85,0.85,0,0,0,0,0.85V4H4V0H0.85Z"/></svg><svg viewBox="0 0 4 4" x="458" y="857" width="57" height="57" shape-rendering="auto"><rect fill="#ff00fa" width="4" height="4"/></svg><svg viewBox="0 0 4 4" x="515" y="857" width="57" height="57" shape-rendering="auto"><path fill="#ff00fa" d="M0.85,4h2.3A0.85,0.85,0,0,0,4,3.15V0.85A0.85,0.85,0,0,0,3.15,0H0V4Z"/></svg><svg viewBox="0 0 4 4" x="629" y="857" width="57" height="57" shape-rendering="auto"><path fill="#ff00fa" d="M0,3.15A0.85,0.85,0,0,0,0.85,4H4V0H0V3.15Z"/></svg><svg viewBox="0 0 4 4" x="686" y="857" width="57" height="57" shape-rendering="auto"><path fill="#ff00fa" d="M3.15,0A0.85,0.85,0,0,1,4,0.85V4H0V0H3.15Z"/></svg><svg viewBox="0 0 4 4" x="743" y="857" width="57" height="57" shape-rendering="auto"><path fill="#ff00fa" d="M3.15,4A0.85,0.85,0,0,0,4,3.15V4Z"/></svg><svg viewBox="0 0 4 4" x="743" y="857" width="57" height="57" shape-rendering="auto"><path fill="#ff00fa" d="M0.85,4A0.85,0.85,0,0,1,0,3.15V4Z"/></svg><svg viewBox="0 0 4 4" x="800" y="857" width="57" height="57" shape-rendering="auto"><rect fill="#ff00fa" width="4" height="4"/></svg><svg viewBox="0 0 4 4" x="857" y="857" width="57" height="57" shape-rendering="auto"><path fill="#ff00fa" d="M0.85,0H0V0.85A0.85,0.85,0,0,1,0.85,0Z"/></svg><svg viewBox="0 0 4 4" x="971" y="857" width="57" height="57" shape-rendering="auto"><path fill="#ff00fa" d="M3.15,4A0.85,0.85,0,0,0,4,3.15V4Z"/></svg><svg viewBox="0 0 4 4" x="1028" y="857" width="57" height="57" shape-rendering="auto"><rect fill="#ff00fa" width="4" height="4"/></svg><svg viewBox="0 0 4 4" x="1085" y="857" width="57" height="57" shape-rendering="auto"><path fill="#ff00fa" d="M3.15,0A0.85,0.85,0,0,1,4,0.85V4H0V0H3.15Z"/></svg><svg viewBox="0 0 4 4" x="1142" y="857" width="57" height="57" shape-rendering="auto"><path fill="#ff00fa" d="M0.85,4A0.85,0.85,0,0,1,0,3.15V4Z"/></svg><svg viewBox="0 0 4 4" x="1427" y="857" width="57" height="57" shape-rendering="auto"><path fill="#ff00fa" d="M0.85,0A0.85,0.85,0,0,0,0,0.85V4H4V0H0.85Z"/></svg><svg viewBox="0 0 4 4" x="1484" y="857" width="57" height="57" shape-rendering="auto"><path fill="#ff00fa" d="M4,3.15A0.85,0.85,0,0,1,3.15,4H0V0H4V3.15Z"/></svg><svg viewBox="0 0 4 4" x="173" y="914" width="57" height="57" shape-rendering="auto"><rect fill="#ff00fa" width="4" height="4"/></svg><svg viewBox="0 0 4 4" x="230" y="914" width="57" height="57" shape-rendering="auto"><path fill="#ff00fa" d="M4,3.15A0.85,0.85,0,0,1,3.15,4H0V0H4V3.15Z"/></svg><svg viewBox="0 0 4 4" x="344" y="914" width="57" height="57" shape-rendering="auto"><path fill="#ff00fa" d="M3.15,4A0.85,0.85,0,0,0,4,3.15V4Z"/></svg><svg viewBox="0 0 4 4" x="401" y="914" width="57" height="57" shape-rendering="auto"><rect fill="#ff00fa" width="4" height="4"/></svg><svg viewBox="0 0 4 4" x="458" y="914" width="57" height="57" shape-rendering="auto"><path fill="#ff00fa" d="M0.85,0H0V0.85A0.85,0.85,0,0,1,0.85,0Z"/></svg><svg viewBox="0 0 4 4" x="629" y="914" width="57" height="57" shape-rendering="auto"><path fill="#ff00fa" d="M4,0.85V0H3.15A0.85,0.85,0,0,1,4,0.85Z"/></svg><svg viewBox="0 0 4 4" x="686" y="914" width="57" height="57" shape-rendering="auto"><path fill="#ff00fa" d="M0,3.15A0.85,0.85,0,0,0,0.85,4H4V0H0V3.15Z"/></svg><svg viewBox="0 0 4 4" x="743" y="914" width="57" height="57" shape-rendering="auto"><rect fill="#ff00fa" width="4" height="4"/></svg><svg viewBox="0 0 4 4" x="800" y="914" width="57" height="57" shape-rendering="auto"><path fill="#ff00fa" d="M4,3.15A0.85,0.85,0,0,1,3.15,4H0V0H4V3.15Z"/></svg><svg viewBox="0 0 4 4" x="914" y="914" width="57" height="57" shape-rendering="auto"><path fill="#ff00fa" d="M3.15,0H0.85A0.85,0.85,0,0,0,0,0.85v2.3A0.85,0.85,0,0,0,0.85,4H4V0Z"/></svg><svg viewBox="0 0 4 4" x="971" y="914" width="57" height="57" shape-rendering="auto"><rect fill="#ff00fa" width="4" height="4"/></svg><svg viewBox="0 0 4 4" x="1028" y="914" width="57" height="57" shape-rendering="auto"><rect fill="#ff00fa" width="4" height="4"/></svg><svg viewBox="0 0 4 4" x="1085" y="914" width="57" height="57" shape-rendering="auto"><rect fill="#ff00fa" width="4" height="4"/></svg><svg viewBox="0 0 4 4" x="1142" y="914" width="57" height="57" shape-rendering="auto"><path fill="#ff00fa" d="M3.15,0A0.85,0.85,0,0,1,4,0.85V4H0V0H3.15Z"/></svg><svg viewBox="0 0 4 4" x="1256" y="914" width="57" height="57" shape-rendering="auto"><path fill="#ff00fa" d="M3.15,4A0.85,0.85,0,0,0,4,3.15V4Z"/></svg><svg viewBox="0 0 4 4" x="1313" y="914" width="57" height="57" shape-rendering="auto"><path fill="#ff00fa" d="M4,3.15V0.85A0.85,0.85,0,0,0,3.15,0H0.85A0.85,0.85,0,0,0,0,0.85V4H4Z"/></svg><svg viewBox="0 0 4 4" x="1370" y="914" width="57" height="57" shape-rendering="auto"><path fill="#ff00fa" d="M3.15,4A0.85,0.85,0,0,0,4,3.15V4Z"/></svg><svg viewBox="0 0 4 4" x="1370" y="914" width="57" height="57" shape-rendering="auto"><path fill="#ff00fa" d="M0.85,4A0.85,0.85,0,0,1,0,3.15V4Z"/></svg><svg viewBox="0 0 4 4" x="1427" y="914" width="57" height="57" shape-rendering="auto"><rect fill="#ff00fa" width="4" height="4"/></svg><svg viewBox="0 0 4 4" x="1484" y="914" width="57" height="57" shape-rendering="auto"><path fill="#ff00fa" d="M0.85,0H0V0.85A0.85,0.85,0,0,1,0.85,0Z"/></svg><svg viewBox="0 0 4 4" x="1541" y="914" width="57" height="57" shape-rendering="auto"><path fill="#ff00fa" d="M0.85,0A0.85,0.85,0,0,0,0,0.85V4H4V0H0.85Z"/></svg><svg viewBox="0 0 4 4" x="1598" y="914" width="57" height="57" shape-rendering="auto"><rect fill="#ff00fa" width="4" height="4"/></svg><svg viewBox="0 0 4 4" x="1655" y="914" width="57" height="57" shape-rendering="auto"><path fill="#ff00fa" d="M3.15,0A0.85,0.85,0,0,1,4,0.85V4H0V0H3.15Z"/></svg><svg viewBox="0 0 4 4" x="173" y="971" width="57" height="57" shape-rendering="auto"><path fill="#ff00fa" d="M0,3.15A0.85,0.85,0,0,0,0.85,4h2.3A0.85,0.85,0,0,0,4,3.15V0H0V3.15Z"/></svg><svg viewBox="0 0 4 4" x="230" y="971" width="57" height="57" shape-rendering="auto"><path fill="#ff00fa" d="M0.85,0H0V0.85A0.85,0.85,0,0,1,0.85,0Z"/></svg><svg viewBox="0 0 4 4" x="344" y="971" width="57" height="57" shape-rendering="auto"><path fill="#ff00fa" d="M3.15,0H0.85A0.85,0.85,0,0,0,0,0.85v2.3A0.85,0.85,0,0,0,0.85,4H4V0Z"/></svg><svg viewBox="0 0 4 4" x="401" y="971" width="57" height="57" shape-rendering="auto"><path fill="#ff00fa" d="M4,3.15A0.85,0.85,0,0,1,3.15,4H0V0H4V3.15Z"/></svg><svg viewBox="0 0 4 4" x="515" y="971" width="57" height="57" shape-rendering="auto"><rect fill="#ff00fa" width="4" height="4" rx="0.85"/></svg><svg viewBox="0 0 4 4" x="857" y="971" width="57" height="57" shape-rendering="auto"><path fill="#ff00fa" d="M4,3.15V0.85A0.85,0.85,0,0,0,3.15,0H0.85A0.85,0.85,0,0,0,0,0.85V4H4Z"/></svg><svg viewBox="0 0 4 4" x="914" y="971" width="57" height="57" shape-rendering="auto"><path fill="#ff00fa" d="M4,0.85V0H3.15A0.85,0.85,0,0,1,4,0.85Z"/></svg><svg viewBox="0 0 4 4" x="914" y="971" width="57" height="57" shape-rendering="auto"><path fill="#ff00fa" d="M0.85,4A0.85,0.85,0,0,1,0,3.15V4Z"/></svg><svg viewBox="0 0 4 4" x="971" y="971" width="57" height="57" shape-rendering="auto"><path fill="#ff00fa" d="M0,3.15A0.85,0.85,0,0,0,0.85,4h2.3A0.85,0.85,0,0,0,4,3.15V0H0V3.15Z"/></svg><svg viewBox="0 0 4 4" x="1028" y="971" width="57" height="57" shape-rendering="auto"><path fill="#ff00fa" d="M0.85,0H0V0.85A0.85,0.85,0,0,1,0.85,0Z"/></svg><svg viewBox="0 0 4 4" x="1085" y="971" width="57" height="57" shape-rendering="auto"><path fill="#ff00fa" d="M4,0.85V0H3.15A0.85,0.85,0,0,1,4,0.85Z"/></svg><svg viewBox="0 0 4 4" x="1142" y="971" width="57" height="57" shape-rendering="auto"><path fill="#ff00fa" d="M0,3.15A0.85,0.85,0,0,0,0.85,4h2.3A0.85,0.85,0,0,0,4,3.15V0H0V3.15Z"/></svg><svg viewBox="0 0 4 4" x="1256" y="971" width="57" height="57" shape-rendering="auto"><path fill="#ff00fa" d="M0.85,0A0.85,0.85,0,0,0,0,0.85V4H4V0H0.85Z"/></svg><svg viewBox="0 0 4 4" x="1313" y="971" width="57" height="57" shape-rendering="auto"><rect fill="#ff00fa" width="4" height="4"/></svg><svg viewBox="0 0 4 4" x="1370" y="971" width="57" height="57" shape-rendering="auto"><rect fill="#ff00fa" width="4" height="4"/></svg><svg viewBox="0 0 4 4" x="1427" y="971" width="57" height="57" shape-rendering="auto"><rect fill="#ff00fa" width="4" height="4"/></svg><svg viewBox="0 0 4 4" x="1484" y="971" width="57" height="57" shape-rendering="auto"><path fill="#ff00fa" d="M3.15,4A0.85,0.85,0,0,0,4,3.15V4Z"/></svg><svg viewBox="0 0 4 4" x="1484" y="971" width="57" height="57" shape-rendering="auto"><path fill="#ff00fa" d="M0.85,4A0.85,0.85,0,0,1,0,3.15V4Z"/></svg><svg viewBox="0 0 4 4" x="1541" y="971" width="57" height="57" shape-rendering="auto"><rect fill="#ff00fa" width="4" height="4"/></svg><svg viewBox="0 0 4 4" x="1598" y="971" width="57" height="57" shape-rendering="auto"><path fill="#ff00fa" d="M0.85,0H0V0.85A0.85,0.85,0,0,1,0.85,0Z"/></svg><svg viewBox="0 0 4 4" x="1598" y="971" width="57" height="57" shape-rendering="auto"><path fill="#ff00fa" d="M4,0.85V0H3.15A0.85,0.85,0,0,1,4,0.85Z"/></svg><svg viewBox="0 0 4 4" x="1655" y="971" width="57" height="57" shape-rendering="auto"><path fill="#ff00fa" d="M0,3.15A0.85,0.85,0,0,0,0.85,4h2.3A0.85,0.85,0,0,0,4,3.15V0H0V3.15Z"/></svg><svg viewBox="0 0 4 4" x="458" y="1028" width="57" height="57" shape-rendering="auto"><path fill="#ff00fa" d="M4,3.15V0.85A0.85,0.85,0,0,0,3.15,0H0.85A0.85,0.85,0,0,0,0,0.85V4H4Z"/></svg><svg viewBox="0 0 4 4" x="515" y="1028" width="57" height="57" shape-rendering="auto"><path fill="#ff00fa" d="M0.85,4A0.85,0.85,0,0,1,0,3.15V4Z"/></svg><svg viewBox="0 0 4 4" x="572" y="1028" width="57" height="57" shape-rendering="auto"><rect fill="#ff00fa" width="4" height="4" rx="0.85"/></svg><svg viewBox="0 0 4 4" x="629" y="1028" width="57" height="57" shape-rendering="auto"><path fill="#ff00fa" d="M3.15,4A0.85,0.85,0,0,0,4,3.15V4Z"/></svg><svg viewBox="0 0 4 4" x="686" y="1028" width="57" height="57" shape-rendering="auto"><path fill="#ff00fa" d="M4,3.15V0.85A0.85,0.85,0,0,0,3.15,0H0.85A0.85,0.85,0,0,0,0,0.85V4H4Z"/></svg><svg viewBox="0 0 4 4" x="857" y="1028" width="57" height="57" shape-rendering="auto"><path fill="#ff00fa" d="M0,3.15A0.85,0.85,0,0,0,0.85,4H4V0H0V3.15Z"/></svg><svg viewBox="0 0 4 4" x="914" y="1028" width="57" height="57" shape-rendering="auto"><path fill="#ff00fa" d="M0.85,4h2.3A0.85,0.85,0,0,0,4,3.15V0.85A0.85,0.85,0,0,0,3.15,0H0V4Z"/></svg><svg viewBox="0 0 4 4" x="1028" y="1028" width="57" height="57" shape-rendering="auto"><path fill="#ff00fa" d="M3.15,0H0.85A0.85,0.85,0,0,0,0,0.85v2.3A0.85,0.85,0,0,0,0.85,4H4V0Z"/></svg><svg viewBox="0 0 4 4" x="1085" y="1028" width="57" height="57" shape-rendering="auto"><path fill="#ff00fa" d="M0.85,4h2.3A0.85,0.85,0,0,0,4,3.15V0.85A0.85,0.85,0,0,0,3.15,0H0V4Z"/></svg><svg viewBox="0 0 4 4" x="1256" y="1028" width="57" height="57" shape-rendering="auto"><path fill="#ff00fa" d="M0,3.15A0.85,0.85,0,0,0,0.85,4H4V0H0V3.15Z"/></svg><svg viewBox="0 0 4 4" x="1313" y="1028" width="57" height="57" shape-rendering="auto"><rect fill="#ff00fa" width="4" height="4"/></svg><svg viewBox="0 0 4 4" x="1370" y="1028" width="57" height="57" shape-rendering="auto"><rect fill="#ff00fa" width="4" height="4"/></svg><svg viewBox="0 0 4 4" x="1427" y="1028" width="57" height="57" shape-rendering="auto"><rect fill="#ff00fa" width="4" height="4"/></svg><svg viewBox="0 0 4 4" x="1484" y="1028" width="57" height="57" shape-rendering="auto"><rect fill="#ff00fa" width="4" height="4"/></svg><svg viewBox="0 0 4 4" x="1541" y="1028" width="57" height="57" shape-rendering="auto"><rect fill="#ff00fa" width="4" height="4"/></svg><svg viewBox="0 0 4 4" x="1655" y="1028" width="57" height="57" shape-rendering="auto"><path fill="#ff00fa" d="M3.15,4A0.85,0.85,0,0,0,4,3.15V4Z"/></svg><svg viewBox="0 0 4 4" x="1712" y="1028" width="57" height="57" shape-rendering="auto"><path fill="#ff00fa" d="M0.85,0A0.85,0.85,0,0,0,0,0.85V4H4V0H0.85Z"/></svg><svg viewBox="0 0 4 4" x="1769" y="1028" width="57" height="57" shape-rendering="auto"><path fill="#ff00fa" d="M0.85,4h2.3A0.85,0.85,0,0,0,4,3.15V0.85A0.85,0.85,0,0,0,3.15,0H0V4Z"/></svg><svg viewBox="0 0 4 4" x="287" y="1085" width="57" height="57" shape-rendering="auto"><path fill="#ff00fa" d="M3.15,4A0.85,0.85,0,0,0,4,3.15V4Z"/></svg><svg viewBox="0 0 4 4" x="344" y="1085" width="57" height="57" shape-rendering="auto"><path fill="#ff00fa" d="M4,3.15V0.85A0.85,0.85,0,0,0,3.15,0H0.85A0.85,0.85,0,0,0,0,0.85V4H4Z"/></svg><svg viewBox="0 0 4 4" x="458" y="1085" width="57" height="57" shape-rendering="auto"><rect fill="#ff00fa" width="4" height="4"/></svg><svg viewBox="0 0 4 4" x="515" y="1085" width="57" height="57" shape-rendering="auto"><path fill="#ff00fa" d="M0.85,4h2.3A0.85,0.85,0,0,0,4,3.15V0.85A0.85,0.85,0,0,0,3.15,0H0V4Z"/></svg><svg viewBox="0 0 4 4" x="629" y="1085" width="57" height="57" shape-rendering="auto"><path fill="#ff00fa" d="M3.15,0H0.85A0.85,0.85,0,0,0,0,0.85v2.3A0.85,0.85,0,0,0,0.85,4H4V0Z"/></svg><svg viewBox="0 0 4 4" x="686" y="1085" width="57" height="57" shape-rendering="auto"><rect fill="#ff00fa" width="4" height="4"/></svg><svg viewBox="0 0 4 4" x="800" y="1085" width="57" height="57" shape-rendering="auto"><rect fill="#ff00fa" width="4" height="4" rx="0.85"/></svg><svg viewBox="0 0 4 4" x="1199" y="1085" width="57" height="57" shape-rendering="auto"><path fill="#ff00fa" d="M4,3.15V0.85A0.85,0.85,0,0,0,3.15,0H0.85A0.85,0.85,0,0,0,0,0.85V4H4Z"/></svg><svg viewBox="0 0 4 4" x="1256" y="1085" width="57" height="57" shape-rendering="auto"><path fill="#ff00fa" d="M0.85,4A0.85,0.85,0,0,1,0,3.15V4Z"/></svg><svg viewBox="0 0 4 4" x="1313" y="1085" width="57" height="57" shape-rendering="auto"><path fill="#ff00fa" d="M4,0.85V0H3.15A0.85,0.85,0,0,1,4,0.85Z"/></svg><svg viewBox="0 0 4 4" x="1370" y="1085" width="57" height="57" shape-rendering="auto"><rect fill="#ff00fa" width="4" height="4"/></svg><svg viewBox="0 0 4 4" x="1427" y="1085" width="57" height="57" shape-rendering="auto"><path fill="#ff00fa" d="M0.85,0H0V0.85A0.85,0.85,0,0,1,0.85,0Z"/></svg><svg viewBox="0 0 4 4" x="1484" y="1085" width="57" height="57" shape-rendering="auto"><path fill="#ff00fa" d="M4,0.85V0H3.15A0.85,0.85,0,0,1,4,0.85Z"/></svg><svg viewBox="0 0 4 4" x="1541" y="1085" width="57" height="57" shape-rendering="auto"><path fill="#ff00fa" d="M0,3.15A0.85,0.85,0,0,0,0.85,4h2.3A0.85,0.85,0,0,0,4,3.15V0H0V3.15Z"/></svg><svg viewBox="0 0 4 4" x="1655" y="1085" width="57" height="57" shape-rendering="auto"><path fill="#ff00fa" d="M3.15,0H0.85A0.85,0.85,0,0,0,0,0.85v2.3A0.85,0.85,0,0,0,0.85,4H4V0Z"/></svg><svg viewBox="0 0 4 4" x="1712" y="1085" width="57" height="57" shape-rendering="auto"><rect fill="#ff00fa" width="4" height="4"/></svg><svg viewBox="0 0 4 4" x="1769" y="1085" width="57" height="57" shape-rendering="auto"><path fill="#ff00fa" d="M0.85,0H0V0.85A0.85,0.85,0,0,1,0.85,0Z"/></svg><svg viewBox="0 0 4 4" x="1769" y="1085" width="57" height="57" shape-rendering="auto"><path fill="#ff00fa" d="M0.85,4A0.85,0.85,0,0,1,0,3.15V4Z"/></svg><svg viewBox="0 0 4 4" x="287" y="1142" width="57" height="57" shape-rendering="auto"><path fill="#ff00fa" d="M0.85,0A0.85,0.85,0,0,0,0,0.85V4H4V0H0.85Z"/></svg><svg viewBox="0 0 4 4" x="344" y="1142" width="57" height="57" shape-rendering="auto"><rect fill="#ff00fa" width="4" height="4"/></svg><svg viewBox="0 0 4 4" x="401" y="1142" width="57" height="57" shape-rendering="auto"><path fill="#ff00fa" d="M0.85,4A0.85,0.85,0,0,1,0,3.15V4Z"/></svg><svg viewBox="0 0 4 4" x="458" y="1142" width="57" height="57" shape-rendering="auto"><path fill="#ff00fa" d="M0,3.15A0.85,0.85,0,0,0,0.85,4h2.3A0.85,0.85,0,0,0,4,3.15V0H0V3.15Z"/></svg><svg viewBox="0 0 4 4" x="515" y="1142" width="57" height="57" shape-rendering="auto"><path fill="#ff00fa" d="M0.85,0H0V0.85A0.85,0.85,0,0,1,0.85,0Z"/></svg><svg viewBox="0 0 4 4" x="515" y="1142" width="57" height="57" shape-rendering="auto"><path fill="#ff00fa" d="M3.15,4A0.85,0.85,0,0,0,4,3.15V4Z"/></svg><svg viewBox="0 0 4 4" x="572" y="1142" width="57" height="57" shape-rendering="auto"><path fill="#ff00fa" d="M4,3.15V0.85A0.85,0.85,0,0,0,3.15,0H0.85A0.85,0.85,0,0,0,0,0.85V4H4Z"/></svg><svg viewBox="0 0 4 4" x="629" y="1142" width="57" height="57" shape-rendering="auto"><path fill="#ff00fa" d="M4,0.85V0H3.15A0.85,0.85,0,0,1,4,0.85Z"/></svg><svg viewBox="0 0 4 4" x="629" y="1142" width="57" height="57" shape-rendering="auto"><path fill="#ff00fa" d="M0.85,4A0.85,0.85,0,0,1,0,3.15V4Z"/></svg><svg viewBox="0 0 4 4" x="686" y="1142" width="57" height="57" shape-rendering="auto"><path fill="#ff00fa" d="M0,3.15A0.85,0.85,0,0,0,0.85,4h2.3A0.85,0.85,0,0,0,4,3.15V0H0V3.15Z"/></svg><svg viewBox="0 0 4 4" x="800" y="1142" width="57" height="57" shape-rendering="auto"><path fill="#ff00fa" d="M3.15,4A0.85,0.85,0,0,0,4,3.15V4Z"/></svg><svg viewBox="0 0 4 4" x="857" y="1142" width="57" height="57" shape-rendering="auto"><path fill="#ff00fa" d="M0.85,0A0.85,0.85,0,0,0,0,0.85V4H4V0H0.85Z"/></svg><svg viewBox="0 0 4 4" x="914" y="1142" width="57" height="57" shape-rendering="auto"><path fill="#ff00fa" d="M0.85,4h2.3A0.85,0.85,0,0,0,4,3.15V0.85A0.85,0.85,0,0,0,3.15,0H0V4Z"/></svg><svg viewBox="0 0 4 4" x="1028" y="1142" width="57" height="57" shape-rendering="auto"><path fill="#ff00fa" d="M3.15,0H0.85A0.85,0.85,0,0,0,0,0.85v2.3A0.85,0.85,0,0,0,0.85,4H4V0Z"/></svg><svg viewBox="0 0 4 4" x="1085" y="1142" width="57" height="57" shape-rendering="auto"><path fill="#ff00fa" d="M3.15,0A0.85,0.85,0,0,1,4,0.85V4H0V0H3.15Z"/></svg><svg viewBox="0 0 4 4" x="1199" y="1142" width="57" height="57" shape-rendering="auto"><path fill="#ff00fa" d="M0,3.15A0.85,0.85,0,0,0,0.85,4H4V0H0V3.15Z"/></svg><svg viewBox="0 0 4 4" x="1256" y="1142" width="57" height="57" shape-rendering="auto"><path fill="#ff00fa" d="M0.85,4h2.3A0.85,0.85,0,0,0,4,3.15V0.85A0.85,0.85,0,0,0,3.15,0H0V4Z"/></svg><svg viewBox="0 0 4 4" x="1370" y="1142" width="57" height="57" shape-rendering="auto"><path fill="#ff00fa" d="M0,3.15A0.85,0.85,0,0,0,0.85,4h2.3A0.85,0.85,0,0,0,4,3.15V0H0V3.15Z"/></svg><svg viewBox="0 0 4 4" x="1484" y="1142" width="57" height="57" shape-rendering="auto"><rect fill="#ff00fa" width="4" height="4" rx="0.85"/></svg><svg viewBox="0 0 4 4" x="1655" y="1142" width="57" height="57" shape-rendering="auto"><path fill="#ff00fa" d="M4,0.85V0H3.15A0.85,0.85,0,0,1,4,0.85Z"/></svg><svg viewBox="0 0 4 4" x="1712" y="1142" width="57" height="57" shape-rendering="auto"><path fill="#ff00fa" d="M0,3.15A0.85,0.85,0,0,0,0.85,4H4V0H0V3.15Z"/></svg><svg viewBox="0 0 4 4" x="1769" y="1142" width="57" height="57" shape-rendering="auto"><path fill="#ff00fa" d="M0.85,4h2.3A0.85,0.85,0,0,0,4,3.15V0.85A0.85,0.85,0,0,0,3.15,0H0V4Z"/></svg><svg viewBox="0 0 4 4" x="173" y="1199" width="57" height="57" shape-rendering="auto"><rect fill="#ff00fa" width="4" height="4" rx="0.85"/></svg><svg viewBox="0 0 4 4" x="287" y="1199" width="57" height="57" shape-rendering="auto"><path fill="#ff00fa" d="M0,3.15A0.85,0.85,0,0,0,0.85,4H4V0H0V3.15Z"/></svg><svg viewBox="0 0 4 4" x="344" y="1199" width="57" height="57" shape-rendering="auto"><rect fill="#ff00fa" width="4" height="4"/></svg><svg viewBox="0 0 4 4" x="401" y="1199" width="57" height="57" shape-rendering="auto"><path fill="#ff00fa" d="M0.85,4h2.3A0.85,0.85,0,0,0,4,3.15V0.85A0.85,0.85,0,0,0,3.15,0H0V4Z"/></svg><svg viewBox="0 0 4 4" x="515" y="1199" width="57" height="57" shape-rendering="auto"><path fill="#ff00fa" d="M3.15,0H0.85A0.85,0.85,0,0,0,0,0.85v2.3A0.85,0.85,0,0,0,0.85,4H4V0Z"/></svg><svg viewBox="0 0 4 4" x="572" y="1199" width="57" height="57" shape-rendering="auto"><rect fill="#ff00fa" width="4" height="4"/></svg><svg viewBox="0 0 4 4" x="629" y="1199" width="57" height="57" shape-rendering="auto"><path fill="#ff00fa" d="M3.15,0A0.85,0.85,0,0,1,4,0.85V4H0V0H3.15Z"/></svg><svg viewBox="0 0 4 4" x="800" y="1199" width="57" height="57" shape-rendering="auto"><path fill="#ff00fa" d="M3.15,0H0.85A0.85,0.85,0,0,0,0,0.85v2.3A0.85,0.85,0,0,0,0.85,4H4V0Z"/></svg><svg viewBox="0 0 4 4" x="857" y="1199" width="57" height="57" shape-rendering="auto"><rect fill="#ff00fa" width="4" height="4"/></svg><svg viewBox="0 0 4 4" x="914" y="1199" width="57" height="57" shape-rendering="auto"><path fill="#ff00fa" d="M0.85,0H0V0.85A0.85,0.85,0,0,1,0.85,0Z"/></svg><svg viewBox="0 0 4 4" x="1028" y="1199" width="57" height="57" shape-rendering="auto"><path fill="#ff00fa" d="M4,0.85V0H3.15A0.85,0.85,0,0,1,4,0.85Z"/></svg><svg viewBox="0 0 4 4" x="1085" y="1199" width="57" height="57" shape-rendering="auto"><rect fill="#ff00fa" width="4" height="4"/></svg><svg viewBox="0 0 4 4" x="1142" y="1199" width="57" height="57" shape-rendering="auto"><path fill="#ff00fa" d="M0.85,4A0.85,0.85,0,0,1,0,3.15V4Z"/></svg><svg viewBox="0 0 4 4" x="1598" y="1199" width="57" height="57" shape-rendering="auto"><path fill="#ff00fa" d="M3.15,0H0.85A0.85,0.85,0,0,0,0,0.85v2.3A0.85,0.85,0,0,0,0.85,4H4V0Z"/></svg><svg viewBox="0 0 4 4" x="1655" y="1199" width="57" height="57" shape-rendering="auto"><path fill="#ff00fa" d="M3.15,0A0.85,0.85,0,0,1,4,0.85V4H0V0H3.15Z"/></svg><svg viewBox="0 0 4 4" x="287" y="1256" width="57" height="57" shape-rendering="auto"><path fill="#ff00fa" d="M4,0.85V0H3.15A0.85,0.85,0,0,1,4,0.85Z"/></svg><svg viewBox="0 0 4 4" x="287" y="1256" width="57" height="57" shape-rendering="auto"><path fill="#ff00fa" d="M3.15,4A0.85,0.85,0,0,0,4,3.15V4Z"/></svg><svg viewBox="0 0 4 4" x="344" y="1256" width="57" height="57" shape-rendering="auto"><rect fill="#ff00fa" width="4" height="4"/></svg><svg viewBox="0 0 4 4" x="401" y="1256" width="57" height="57" shape-rendering="auto"><path fill="#ff00fa" d="M0.85,0H0V0.85A0.85,0.85,0,0,1,0.85,0Z"/></svg><svg viewBox="0 0 4 4" x="401" y="1256" width="57" height="57" shape-rendering="auto"><path fill="#ff00fa" d="M3.15,4A0.85,0.85,0,0,0,4,3.15V4Z"/></svg><svg viewBox="0 0 4 4" x="401" y="1256" width="57" height="57" shape-rendering="auto"><path fill="#ff00fa" d="M0.85,4A0.85,0.85,0,0,1,0,3.15V4Z"/></svg><svg viewBox="0 0 4 4" x="458" y="1256" width="57" height="57" shape-rendering="auto"><path fill="#ff00fa" d="M4,3.15V0.85A0.85,0.85,0,0,0,3.15,0H0.85A0.85,0.85,0,0,0,0,0.85V4H4Z"/></svg><svg viewBox="0 0 4 4" x="515" y="1256" width="57" height="57" shape-rendering="auto"><path fill="#ff00fa" d="M0.85,4A0.85,0.85,0,0,1,0,3.15V4Z"/></svg><svg viewBox="0 0 4 4" x="572" y="1256" width="57" height="57" shape-rendering="auto"><path fill="#ff00fa" d="M4,0.85V0H3.15A0.85,0.85,0,0,1,4,0.85Z"/></svg><svg viewBox="0 0 4 4" x="629" y="1256" width="57" height="57" shape-rendering="auto"><path fill="#ff00fa" d="M0,3.15A0.85,0.85,0,0,0,0.85,4h2.3A0.85,0.85,0,0,0,4,3.15V0H0V3.15Z"/></svg><svg viewBox="0 0 4 4" x="743" y="1256" width="57" height="57" shape-rendering="auto"><path fill="#ff00fa" d="M4,3.15V0.85A0.85,0.85,0,0,0,3.15,0H0.85A0.85,0.85,0,0,0,0,0.85V4H4Z"/></svg><svg viewBox="0 0 4 4" x="800" y="1256" width="57" height="57" shape-rendering="auto"><path fill="#ff00fa" d="M4,0.85V0H3.15A0.85,0.85,0,0,1,4,0.85Z"/></svg><svg viewBox="0 0 4 4" x="800" y="1256" width="57" height="57" shape-rendering="auto"><path fill="#ff00fa" d="M3.15,4A0.85,0.85,0,0,0,4,3.15V4Z"/></svg><svg viewBox="0 0 4 4" x="800" y="1256" width="57" height="57" shape-rendering="auto"><path fill="#ff00fa" d="M0.85,4A0.85,0.85,0,0,1,0,3.15V4Z"/></svg><svg viewBox="0 0 4 4" x="857" y="1256" width="57" height="57" shape-rendering="auto"><rect fill="#ff00fa" width="4" height="4"/></svg><svg viewBox="0 0 4 4" x="914" y="1256" width="57" height="57" shape-rendering="auto"><path fill="#ff00fa" d="M0.85,4A0.85,0.85,0,0,1,0,3.15V4Z"/></svg><svg viewBox="0 0 4 4" x="1085" y="1256" width="57" height="57" shape-rendering="auto"><path fill="#ff00fa" d="M0,3.15A0.85,0.85,0,0,0,0.85,4H4V0H0V3.15Z"/></svg><svg viewBox="0 0 4 4" x="1142" y="1256" width="57" height="57" shape-rendering="auto"><path fill="#ff00fa" d="M3.15,0A0.85,0.85,0,0,1,4,0.85V4H0V0H3.15Z"/></svg><svg viewBox="0 0 4 4" x="1199" y="1256" width="57" height="57" shape-rendering="auto"><path fill="#ff00fa" d="M3.15,4A0.85,0.85,0,0,0,4,3.15V4Z"/></svg><svg viewBox="0 0 4 4" x="1199" y="1256" width="57" height="57" shape-rendering="auto"><path fill="#ff00fa" d="M0.85,4A0.85,0.85,0,0,1,0,3.15V4Z"/></svg><svg viewBox="0 0 4 4" x="1256" y="1256" width="57" height="57" shape-rendering="auto"><path fill="#ff00fa" d="M4,3.15V0.85A0.85,0.85,0,0,0,3.15,0H0.85A0.85,0.85,0,0,0,0,0.85V4H4Z"/></svg><svg viewBox="0 0 4 4" x="1313" y="1256" width="57" height="57" shape-rendering="auto"><path fill="#ff00fa" d="M0.85,4A0.85,0.85,0,0,1,0,3.15V4Z"/></svg><svg viewBox="0 0 4 4" x="1370" y="1256" width="57" height="57" shape-rendering="auto"><path fill="#ff00fa" d="M3.15,4A0.85,0.85,0,0,0,4,3.15V4Z"/></svg><svg viewBox="0 0 4 4" x="1427" y="1256" width="57" height="57" shape-rendering="auto"><path fill="#ff00fa" d="M4,3.15V0.85A0.85,0.85,0,0,0,3.15,0H0.85A0.85,0.85,0,0,0,0,0.85V4H4Z"/></svg><svg viewBox="0 0 4 4" x="1484" y="1256" width="57" height="57" shape-rendering="auto"><path fill="#ff00fa" d="M0.85,4A0.85,0.85,0,0,1,0,3.15V4Z"/></svg><svg viewBox="0 0 4 4" x="1598" y="1256" width="57" height="57" shape-rendering="auto"><path fill="#ff00fa" d="M4,0.85V0H3.15A0.85,0.85,0,0,1,4,0.85Z"/></svg><svg viewBox="0 0 4 4" x="1655" y="1256" width="57" height="57" shape-rendering="auto"><rect fill="#ff00fa" width="4" height="4"/></svg><svg viewBox="0 0 4 4" x="1769" y="1256" width="57" height="57" shape-rendering="auto"><path fill="#ff00fa" d="M4,3.15V0.85A0.85,0.85,0,0,0,3.15,0H0.85A0.85,0.85,0,0,0,0,0.85V4H4Z"/></svg><svg viewBox="0 0 4 4" x="230" y="1313" width="57" height="57" shape-rendering="auto"><path fill="#ff00fa" d="M3.15,0H0.85A0.85,0.85,0,0,0,0,0.85v2.3A0.85,0.85,0,0,0,0.85,4H4V0Z"/></svg><svg viewBox="0 0 4 4" x="287" y="1313" width="57" height="57" shape-rendering="auto"><rect fill="#ff00fa" width="4" height="4"/></svg><svg viewBox="0 0 4 4" x="344" y="1313" width="57" height="57" shape-rendering="auto"><rect fill="#ff00fa" width="4" height="4"/></svg><svg viewBox="0 0 4 4" x="401" y="1313" width="57" height="57" shape-rendering="auto"><rect fill="#ff00fa" width="4" height="4"/></svg><svg viewBox="0 0 4 4" x="458" y="1313" width="57" height="57" shape-rendering="auto"><rect fill="#ff00fa" width="4" height="4"/></svg><svg viewBox="0 0 4 4" x="515" y="1313" width="57" height="57" shape-rendering="auto"><path fill="#ff00fa" d="M0.85,4h2.3A0.85,0.85,0,0,0,4,3.15V0.85A0.85,0.85,0,0,0,3.15,0H0V4Z"/></svg><svg viewBox="0 0 4 4" x="743" y="1313" width="57" height="57" shape-rendering="auto"><path fill="#ff00fa" d="M0,3.15A0.85,0.85,0,0,0,0.85,4H4V0H0V3.15Z"/></svg><svg viewBox="0 0 4 4" x="800" y="1313" width="57" height="57" shape-rendering="auto"><rect fill="#ff00fa" width="4" height="4"/></svg><svg viewBox="0 0 4 4" x="857" y="1313" width="57" height="57" shape-rendering="auto"><rect fill="#ff00fa" width="4" height="4"/></svg><svg viewBox="0 0 4 4" x="914" y="1313" width="57" height="57" shape-rendering="auto"><path fill="#ff00fa" d="M3.15,0A0.85,0.85,0,0,1,4,0.85V4H0V0H3.15Z"/></svg><svg viewBox="0 0 4 4" x="971" y="1313" width="57" height="57" shape-rendering="auto"><path fill="#ff00fa" d="M0.85,4A0.85,0.85,0,0,1,0,3.15V4Z"/></svg><svg viewBox="0 0 4 4" x="1085" y="1313" width="57" height="57" shape-rendering="auto"><path fill="#ff00fa" d="M4,0.85V0H3.15A0.85,0.85,0,0,1,4,0.85Z"/></svg><svg viewBox="0 0 4 4" x="1142" y="1313" width="57" height="57" shape-rendering="auto"><path fill="#ff00fa" d="M0,3.15A0.85,0.85,0,0,0,0.85,4H4V0H0V3.15Z"/></svg><svg viewBox="0 0 4 4" x="1199" y="1313" width="57" height="57" shape-rendering="auto"><rect fill="#ff00fa" width="4" height="4"/></svg><svg viewBox="0 0 4 4" x="1256" y="1313" width="57" height="57" shape-rendering="auto"><rect fill="#ff00fa" width="4" height="4"/></svg><svg viewBox="0 0 4 4" x="1313" y="1313" width="57" height="57" shape-rendering="auto"><rect fill="#ff00fa" width="4" height="4"/></svg><svg viewBox="0 0 4 4" x="1370" y="1313" width="57" height="57" shape-rendering="auto"><rect fill="#ff00fa" width="4" height="4"/></svg><svg viewBox="0 0 4 4" x="1427" y="1313" width="57" height="57" shape-rendering="auto"><rect fill="#ff00fa" width="4" height="4"/></svg><svg viewBox="0 0 4 4" x="1484" y="1313" width="57" height="57" shape-rendering="auto"><rect fill="#ff00fa" width="4" height="4"/></svg><svg viewBox="0 0 4 4" x="1541" y="1313" width="57" height="57" shape-rendering="auto"><path fill="#ff00fa" d="M3.15,0A0.85,0.85,0,0,1,4,0.85V4H0V0H3.15Z"/></svg><svg viewBox="0 0 4 4" x="1655" y="1313" width="57" height="57" shape-rendering="auto"><path fill="#ff00fa" d="M0,3.15A0.85,0.85,0,0,0,0.85,4h2.3A0.85,0.85,0,0,0,4,3.15V0H0V3.15Z"/></svg><svg viewBox="0 0 4 4" x="1769" y="1313" width="57" height="57" shape-rendering="auto"><path fill="#ff00fa" d="M0,3.15A0.85,0.85,0,0,0,0.85,4h2.3A0.85,0.85,0,0,0,4,3.15V0H0V3.15Z"/></svg><svg viewBox="0 0 4 4" x="629" y="1370" width="57" height="57" shape-rendering="auto"><path fill="#ff00fa" d="M3.15,0H0.85A0.85,0.85,0,0,0,0,0.85v2.3A0.85,0.85,0,0,0,0.85,4H4V0Z"/></svg><svg viewBox="0 0 4 4" x="686" y="1370" width="57" height="57" shape-rendering="auto"><path fill="#ff00fa" d="M3.15,0A0.85,0.85,0,0,1,4,0.85V4H0V0H3.15Z"/></svg><svg viewBox="0 0 4 4" x="743" y="1370" width="57" height="57" shape-rendering="auto"><path fill="#ff00fa" d="M0.85,4A0.85,0.85,0,0,1,0,3.15V4Z"/></svg><svg viewBox="0 0 4 4" x="800" y="1370" width="57" height="57" shape-rendering="auto"><path fill="#ff00fa" d="M4,0.85V0H3.15A0.85,0.85,0,0,1,4,0.85Z"/></svg><svg viewBox="0 0 4 4" x="800" y="1370" width="57" height="57" shape-rendering="auto"><path fill="#ff00fa" d="M3.15,4A0.85,0.85,0,0,0,4,3.15V4Z"/></svg><svg viewBox="0 0 4 4" x="857" y="1370" width="57" height="57" shape-rendering="auto"><rect fill="#ff00fa" width="4" height="4"/></svg><svg viewBox="0 0 4 4" x="914" y="1370" width="57" height="57" shape-rendering="auto"><rect fill="#ff00fa" width="4" height="4"/></svg><svg viewBox="0 0 4 4" x="971" y="1370" width="57" height="57" shape-rendering="auto"><rect fill="#ff00fa" width="4" height="4"/></svg><svg viewBox="0 0 4 4" x="1028" y="1370" width="57" height="57" shape-rendering="auto"><rect fill="#ff00fa" width="4" height="4"/></svg><svg viewBox="0 0 4 4" x="1085" y="1370" width="57" height="57" shape-rendering="auto"><path fill="#ff00fa" d="M0.85,4h2.3A0.85,0.85,0,0,0,4,3.15V0.85A0.85,0.85,0,0,0,3.15,0H0V4Z"/></svg><svg viewBox="0 0 4 4" x="1199" y="1370" width="57" height="57" shape-rendering="auto"><path fill="#ff00fa" d="M4,0.85V0H3.15A0.85,0.85,0,0,1,4,0.85Z"/></svg><svg viewBox="0 0 4 4" x="1256" y="1370" width="57" height="57" shape-rendering="auto"><path fill="#ff00fa" d="M0,3.15A0.85,0.85,0,0,0,0.85,4H4V0H0V3.15Z"/></svg><svg viewBox="0 0 4 4" x="1313" y="1370" width="57" height="57" shape-rendering="auto"><rect fill="#ff00fa" width="4" height="4"/></svg><svg viewBox="0 0 4 4" x="1370" y="1370" width="57" height="57" shape-rendering="auto"><path fill="#ff00fa" d="M0.85,0H0V0.85A0.85,0.85,0,0,1,0.85,0Z"/></svg><svg viewBox="0 0 4 4" x="1484" y="1370" width="57" height="57" shape-rendering="auto"><path fill="#ff00fa" d="M4,0.85V0H3.15A0.85,0.85,0,0,1,4,0.85Z"/></svg><svg viewBox="0 0 4 4" x="1541" y="1370" width="57" height="57" shape-rendering="auto"><rect fill="#ff00fa" width="4" height="4"/></svg><svg viewBox="0 0 4 4" x="1598" y="1370" width="57" height="57" shape-rendering="auto"><path fill="#ff00fa" d="M0.85,4A0.85,0.85,0,0,1,0,3.15V4Z"/></svg><svg viewBox="0 0 4 4" x="1712" y="1370" width="57" height="57" shape-rendering="auto"><path fill="#ff00fa" d="M4,3.15V0.85A0.85,0.85,0,0,0,3.15,0H0.85A0.85,0.85,0,0,0,0,0.85V4H4Z"/></svg><svg viewBox="0 0 4 4" x="629" y="1427" width="57" height="57" shape-rendering="auto"><path fill="#ff00fa" d="M4,0.85V0H3.15A0.85,0.85,0,0,1,4,0.85Z"/></svg><svg viewBox="0 0 4 4" x="686" y="1427" width="57" height="57" shape-rendering="auto"><path fill="#ff00fa" d="M0,3.15A0.85,0.85,0,0,0,0.85,4H4V0H0V3.15Z"/></svg><svg viewBox="0 0 4 4" x="743" y="1427" width="57" height="57" shape-rendering="auto"><rect fill="#ff00fa" width="4" height="4"/></svg><svg viewBox="0 0 4 4" x="800" y="1427" width="57" height="57" shape-rendering="auto"><rect fill="#ff00fa" width="4" height="4"/></svg><svg viewBox="0 0 4 4" x="857" y="1427" width="57" height="57" shape-rendering="auto"><rect fill="#ff00fa" width="4" height="4"/></svg><svg viewBox="0 0 4 4" x="914" y="1427" width="57" height="57" shape-rendering="auto"><path fill="#ff00fa" d="M4,3.15A0.85,0.85,0,0,1,3.15,4H0V0H4V3.15Z"/></svg><svg viewBox="0 0 4 4" x="971" y="1427" width="57" height="57" shape-rendering="auto"><path fill="#ff00fa" d="M0.85,0H0V0.85A0.85,0.85,0,0,1,0.85,0Z"/></svg><svg viewBox="0 0 4 4" x="1142" y="1427" width="57" height="57" shape-rendering="auto"><path fill="#ff00fa" d="M0.85,0A0.85,0.85,0,0,0,0,0.85V4H4V0H0.85Z"/></svg><svg viewBox="0 0 4 4" x="1199" y="1427" width="57" height="57" shape-rendering="auto"><path fill="#ff00fa" d="M0.85,4h2.3A0.85,0.85,0,0,0,4,3.15V0.85A0.85,0.85,0,0,0,3.15,0H0V4Z"/></svg><svg viewBox="0 0 4 4" x="1256" y="1427" width="57" height="57" shape-rendering="auto"><path fill="#ff00fa" d="M4,0.85V0H3.15A0.85,0.85,0,0,1,4,0.85Z"/></svg><svg viewBox="0 0 4 4" x="1313" y="1427" width="57" height="57" shape-rendering="auto"><rect fill="#ff00fa" width="4" height="4"/></svg><svg viewBox="0 0 4 4" x="1427" y="1427" width="57" height="57" shape-rendering="auto"><rect fill="#ff00fa" width="4" height="4" rx="0.85"/></svg><svg viewBox="0 0 4 4" x="1541" y="1427" width="57" height="57" shape-rendering="auto"><rect fill="#ff00fa" width="4" height="4"/></svg><svg viewBox="0 0 4 4" x="1598" y="1427" width="57" height="57" shape-rendering="auto"><path fill="#ff00fa" d="M3.15,0A0.85,0.85,0,0,1,4,0.85V4H0V0H3.15Z"/></svg><svg viewBox="0 0 4 4" x="1655" y="1427" width="57" height="57" shape-rendering="auto"><path fill="#ff00fa" d="M0.85,4A0.85,0.85,0,0,1,0,3.15V4Z"/></svg><svg viewBox="0 0 4 4" x="1712" y="1427" width="57" height="57" shape-rendering="auto"><path fill="#ff00fa" d="M0,3.15A0.85,0.85,0,0,0,0.85,4h2.3A0.85,0.85,0,0,0,4,3.15V0H0V3.15Z"/></svg><svg viewBox="0 0 4 4" x="686" y="1484" width="57" height="57" shape-rendering="auto"><path fill="#ff00fa" d="M4,0.85V0H3.15A0.85,0.85,0,0,1,4,0.85Z"/></svg><svg viewBox="0 0 4 4" x="743" y="1484" width="57" height="57" shape-rendering="auto"><path fill="#ff00fa" d="M0,3.15A0.85,0.85,0,0,0,0.85,4h2.3A0.85,0.85,0,0,0,4,3.15V0H0V3.15Z"/></svg><svg viewBox="0 0 4 4" x="800" y="1484" width="57" height="57" shape-rendering="auto"><path fill="#ff00fa" d="M0.85,0H0V0.85A0.85,0.85,0,0,1,0.85,0Z"/></svg><svg viewBox="0 0 4 4" x="1142" y="1484" width="57" height="57" shape-rendering="auto"><path fill="#ff00fa" d="M0,3.15A0.85,0.85,0,0,0,0.85,4h2.3A0.85,0.85,0,0,0,4,3.15V0H0V3.15Z"/></svg><svg viewBox="0 0 4 4" x="1199" y="1484" width="57" height="57" shape-rendering="auto"><path fill="#ff00fa" d="M0.85,0H0V0.85A0.85,0.85,0,0,1,0.85,0Z"/></svg><svg viewBox="0 0 4 4" x="1256" y="1484" width="57" height="57" shape-rendering="auto"><path fill="#ff00fa" d="M3.15,4A0.85,0.85,0,0,0,4,3.15V4Z"/></svg><svg viewBox="0 0 4 4" x="1313" y="1484" width="57" height="57" shape-rendering="auto"><rect fill="#ff00fa" width="4" height="4"/></svg><svg viewBox="0 0 4 4" x="1370" y="1484" width="57" height="57" shape-rendering="auto"><path fill="#ff00fa" d="M0.85,4A0.85,0.85,0,0,1,0,3.15V4Z"/></svg><svg viewBox="0 0 4 4" x="1484" y="1484" width="57" height="57" shape-rendering="auto"><path fill="#ff00fa" d="M3.15,4A0.85,0.85,0,0,0,4,3.15V4Z"/></svg><svg viewBox="0 0 4 4" x="1541" y="1484" width="57" height="57" shape-rendering="auto"><rect fill="#ff00fa" width="4" height="4"/></svg><svg viewBox="0 0 4 4" x="1598" y="1484" width="57" height="57" shape-rendering="auto"><rect fill="#ff00fa" width="4" height="4"/></svg><svg viewBox="0 0 4 4" x="1655" y="1484" width="57" height="57" shape-rendering="auto"><path fill="#ff00fa" d="M3.15,0A0.85,0.85,0,0,1,4,0.85V4H0V0H3.15Z"/></svg><svg viewBox="0 0 4 4" x="1712" y="1484" width="57" height="57" shape-rendering="auto"><path fill="#ff00fa" d="M0.85,4A0.85,0.85,0,0,1,0,3.15V4Z"/></svg><svg viewBox="0 0 4 4" x="629" y="1541" width="57" height="57" shape-rendering="auto"><path fill="#ff00fa" d="M3.15,4A0.85,0.85,0,0,0,4,3.15V4Z"/></svg><svg viewBox="0 0 4 4" x="686" y="1541" width="57" height="57" shape-rendering="auto"><path fill="#ff00fa" d="M4,3.15V0.85A0.85,0.85,0,0,0,3.15,0H0.85A0.85,0.85,0,0,0,0,0.85V4H4Z"/></svg><svg viewBox="0 0 4 4" x="800" y="1541" width="57" height="57" shape-rendering="auto"><path fill="#ff00fa" d="M3.15,4A0.85,0.85,0,0,0,4,3.15V4Z"/></svg><svg viewBox="0 0 4 4" x="857" y="1541" width="57" height="57" shape-rendering="auto"><path fill="#ff00fa" d="M4,3.15V0.85A0.85,0.85,0,0,0,3.15,0H0.85A0.85,0.85,0,0,0,0,0.85V4H4Z"/></svg><svg viewBox="0 0 4 4" x="971" y="1541" width="57" height="57" shape-rendering="auto"><path fill="#ff00fa" d="M0.85,0A0.85,0.85,0,0,0,0,0.85V4H4V0H0.85Z"/></svg><svg viewBox="0 0 4 4" x="1028" y="1541" width="57" height="57" shape-rendering="auto"><rect fill="#ff00fa" width="4" height="4"/></svg><svg viewBox="0 0 4 4" x="1085" y="1541" width="57" height="57" shape-rendering="auto"><path fill="#ff00fa" d="M3.15,0A0.85,0.85,0,0,1,4,0.85V4H0V0H3.15Z"/></svg><svg viewBox="0 0 4 4" x="1142" y="1541" width="57" height="57" shape-rendering="auto"><path fill="#ff00fa" d="M0.85,4A0.85,0.85,0,0,1,0,3.15V4Z"/></svg><svg viewBox="0 0 4 4" x="1199" y="1541" width="57" height="57" shape-rendering="auto"><path fill="#ff00fa" d="M3.15,0H0.85A0.85,0.85,0,0,0,0,0.85v2.3A0.85,0.85,0,0,0,0.85,4H4V0Z"/></svg><svg viewBox="0 0 4 4" x="1256" y="1541" width="57" height="57" shape-rendering="auto"><rect fill="#ff00fa" width="4" height="4"/></svg><svg viewBox="0 0 4 4" x="1313" y="1541" width="57" height="57" shape-rendering="auto"><rect fill="#ff00fa" width="4" height="4"/></svg><svg viewBox="0 0 4 4" x="1370" y="1541" width="57" height="57" shape-rendering="auto"><rect fill="#ff00fa" width="4" height="4"/></svg><svg viewBox="0 0 4 4" x="1427" y="1541" width="57" height="57" shape-rendering="auto"><rect fill="#ff00fa" width="4" height="4"/></svg><svg viewBox="0 0 4 4" x="1484" y="1541" width="57" height="57" shape-rendering="auto"><rect fill="#ff00fa" width="4" height="4"/></svg><svg viewBox="0 0 4 4" x="1541" y="1541" width="57" height="57" shape-rendering="auto"><rect fill="#ff00fa" width="4" height="4"/></svg><svg viewBox="0 0 4 4" x="1598" y="1541" width="57" height="57" shape-rendering="auto"><path fill="#ff00fa" d="M0.85,0H0V0.85A0.85,0.85,0,0,1,0.85,0Z"/></svg><svg viewBox="0 0 4 4" x="1598" y="1541" width="57" height="57" shape-rendering="auto"><path fill="#ff00fa" d="M4,0.85V0H3.15A0.85,0.85,0,0,1,4,0.85Z"/></svg><svg viewBox="0 0 4 4" x="1655" y="1541" width="57" height="57" shape-rendering="auto"><rect fill="#ff00fa" width="4" height="4"/></svg><svg viewBox="0 0 4 4" x="1712" y="1541" width="57" height="57" shape-rendering="auto"><rect fill="#ff00fa" width="4" height="4"/></svg><svg viewBox="0 0 4 4" x="1769" y="1541" width="57" height="57" shape-rendering="auto"><path fill="#ff00fa" d="M0.85,4h2.3A0.85,0.85,0,0,0,4,3.15V0.85A0.85,0.85,0,0,0,3.15,0H0V4Z"/></svg><svg viewBox="0 0 4 4" x="629" y="1598" width="57" height="57" shape-rendering="auto"><path fill="#ff00fa" d="M0.85,0A0.85,0.85,0,0,0,0,0.85V4H4V0H0.85Z"/></svg><svg viewBox="0 0 4 4" x="686" y="1598" width="57" height="57" shape-rendering="auto"><path fill="#ff00fa" d="M4,3.15A0.85,0.85,0,0,1,3.15,4H0V0H4V3.15Z"/></svg><svg viewBox="0 0 4 4" x="800" y="1598" width="57" height="57" shape-rendering="auto"><path fill="#ff00fa" d="M0.85,0A0.85,0.85,0,0,0,0,0.85V4H4V0H0.85Z"/></svg><svg viewBox="0 0 4 4" x="857" y="1598" width="57" height="57" shape-rendering="auto"><path fill="#ff00fa" d="M4,3.15A0.85,0.85,0,0,1,3.15,4H0V0H4V3.15Z"/></svg><svg viewBox="0 0 4 4" x="971" y="1598" width="57" height="57" shape-rendering="auto"><path fill="#ff00fa" d="M0,3.15A0.85,0.85,0,0,0,0.85,4H4V0H0V3.15Z"/></svg><svg viewBox="0 0 4 4" x="1028" y="1598" width="57" height="57" shape-rendering="auto"><rect fill="#ff00fa" width="4" height="4"/></svg><svg viewBox="0 0 4 4" x="1085" y="1598" width="57" height="57" shape-rendering="auto"><rect fill="#ff00fa" width="4" height="4"/></svg><svg viewBox="0 0 4 4" x="1142" y="1598" width="57" height="57" shape-rendering="auto"><path fill="#ff00fa" d="M3.15,0A0.85,0.85,0,0,1,4,0.85V4H0V0H3.15Z"/></svg><svg viewBox="0 0 4 4" x="1199" y="1598" width="57" height="57" shape-rendering="auto"><path fill="#ff00fa" d="M0.85,4A0.85,0.85,0,0,1,0,3.15V4Z"/></svg><svg viewBox="0 0 4 4" x="1313" y="1598" width="57" height="57" shape-rendering="auto"><path fill="#ff00fa" d="M4,0.85V0H3.15A0.85,0.85,0,0,1,4,0.85Z"/></svg><svg viewBox="0 0 4 4" x="1370" y="1598" width="57" height="57" shape-rendering="auto"><path fill="#ff00fa" d="M0,3.15A0.85,0.85,0,0,0,0.85,4H4V0H0V3.15Z"/></svg><svg viewBox="0 0 4 4" x="1427" y="1598" width="57" height="57" shape-rendering="auto"><rect fill="#ff00fa" width="4" height="4"/></svg><svg viewBox="0 0 4 4" x="1484" y="1598" width="57" height="57" shape-rendering="auto"><path fill="#ff00fa" d="M0.85,0H0V0.85A0.85,0.85,0,0,1,0.85,0Z"/></svg><svg viewBox="0 0 4 4" x="1484" y="1598" width="57" height="57" shape-rendering="auto"><path fill="#ff00fa" d="M4,0.85V0H3.15A0.85,0.85,0,0,1,4,0.85Z"/></svg><svg viewBox="0 0 4 4" x="1484" y="1598" width="57" height="57" shape-rendering="auto"><path fill="#ff00fa" d="M3.15,4A0.85,0.85,0,0,0,4,3.15V4Z"/></svg><svg viewBox="0 0 4 4" x="1484" y="1598" width="57" height="57" shape-rendering="auto"><path fill="#ff00fa" d="M0.85,4A0.85,0.85,0,0,1,0,3.15V4Z"/></svg><svg viewBox="0 0 4 4" x="1541" y="1598" width="57" height="57" shape-rendering="auto"><rect fill="#ff00fa" width="4" height="4"/></svg><svg viewBox="0 0 4 4" x="1598" y="1598" width="57" height="57" shape-rendering="auto"><path fill="#ff00fa" d="M3.15,4A0.85,0.85,0,0,0,4,3.15V4Z"/></svg><svg viewBox="0 0 4 4" x="1598" y="1598" width="57" height="57" shape-rendering="auto"><path fill="#ff00fa" d="M0.85,4A0.85,0.85,0,0,1,0,3.15V4Z"/></svg><svg viewBox="0 0 4 4" x="1655" y="1598" width="57" height="57" shape-rendering="auto"><rect fill="#ff00fa" width="4" height="4"/></svg><svg viewBox="0 0 4 4" x="1712" y="1598" width="57" height="57" shape-rendering="auto"><path fill="#ff00fa" d="M4,3.15A0.85,0.85,0,0,1,3.15,4H0V0H4V3.15Z"/></svg><svg viewBox="0 0 4 4" x="1769" y="1598" width="57" height="57" shape-rendering="auto"><path fill="#ff00fa" d="M0.85,0H0V0.85A0.85,0.85,0,0,1,0.85,0Z"/></svg><svg viewBox="0 0 4 4" x="629" y="1655" width="57" height="57" shape-rendering="auto"><rect fill="#ff00fa" width="4" height="4"/></svg><svg viewBox="0 0 4 4" x="686" y="1655" width="57" height="57" shape-rendering="auto"><path fill="#ff00fa" d="M0.85,0H0V0.85A0.85,0.85,0,0,1,0.85,0Z"/></svg><svg viewBox="0 0 4 4" x="686" y="1655" width="57" height="57" shape-rendering="auto"><path fill="#ff00fa" d="M0.85,4A0.85,0.85,0,0,1,0,3.15V4Z"/></svg><svg viewBox="0 0 4 4" x="800" y="1655" width="57" height="57" shape-rendering="auto"><rect fill="#ff00fa" width="4" height="4"/></svg><svg viewBox="0 0 4 4" x="857" y="1655" width="57" height="57" shape-rendering="auto"><path fill="#ff00fa" d="M0.85,0H0V0.85A0.85,0.85,0,0,1,0.85,0Z"/></svg><svg viewBox="0 0 4 4" x="914" y="1655" width="57" height="57" shape-rendering="auto"><rect fill="#ff00fa" width="4" height="4" rx="0.85"/></svg><svg viewBox="0 0 4 4" x="971" y="1655" width="57" height="57" shape-rendering="auto"><path fill="#ff00fa" d="M4,0.85V0H3.15A0.85,0.85,0,0,1,4,0.85Z"/></svg><svg viewBox="0 0 4 4" x="1028" y="1655" width="57" height="57" shape-rendering="auto"><path fill="#ff00fa" d="M0,3.15A0.85,0.85,0,0,0,0.85,4H4V0H0V3.15Z"/></svg><svg viewBox="0 0 4 4" x="1085" y="1655" width="57" height="57" shape-rendering="auto"><rect fill="#ff00fa" width="4" height="4"/></svg><svg viewBox="0 0 4 4" x="1142" y="1655" width="57" height="57" shape-rendering="auto"><rect fill="#ff00fa" width="4" height="4"/></svg><svg viewBox="0 0 4 4" x="1199" y="1655" width="57" height="57" shape-rendering="auto"><path fill="#ff00fa" d="M3.15,0A0.85,0.85,0,0,1,4,0.85V4H0V0H3.15Z"/></svg><svg viewBox="0 0 4 4" x="1256" y="1655" width="57" height="57" shape-rendering="auto"><path fill="#ff00fa" d="M0.85,4A0.85,0.85,0,0,1,0,3.15V4Z"/></svg><svg viewBox="0 0 4 4" x="1370" y="1655" width="57" height="57" shape-rendering="auto"><path fill="#ff00fa" d="M4,0.85V0H3.15A0.85,0.85,0,0,1,4,0.85Z"/></svg><svg viewBox="0 0 4 4" x="1427" y="1655" width="57" height="57" shape-rendering="auto"><path fill="#ff00fa" d="M0,3.15A0.85,0.85,0,0,0,0.85,4H4V0H0V3.15Z"/></svg><svg viewBox="0 0 4 4" x="1484" y="1655" width="57" height="57" shape-rendering="auto"><rect fill="#ff00fa" width="4" height="4"/></svg><svg viewBox="0 0 4 4" x="1541" y="1655" width="57" height="57" shape-rendering="auto"><rect fill="#ff00fa" width="4" height="4"/></svg><svg viewBox="0 0 4 4" x="1598" y="1655" width="57" height="57" shape-rendering="auto"><rect fill="#ff00fa" width="4" height="4"/></svg><svg viewBox="0 0 4 4" x="1655" y="1655" width="57" height="57" shape-rendering="auto"><rect fill="#ff00fa" width="4" height="4"/></svg><svg viewBox="0 0 4 4" x="1712" y="1655" width="57" height="57" shape-rendering="auto"><path fill="#ff00fa" d="M0.85,0H0V0.85A0.85,0.85,0,0,1,0.85,0Z"/></svg><svg viewBox="0 0 4 4" x="1769" y="1655" width="57" height="57" shape-rendering="auto"><path fill="#ff00fa" d="M4,3.15V0.85A0.85,0.85,0,0,0,3.15,0H0.85A0.85,0.85,0,0,0,0,0.85V4H4Z"/></svg><svg viewBox="0 0 4 4" x="629" y="1712" width="57" height="57" shape-rendering="auto"><rect fill="#ff00fa" width="4" height="4"/></svg><svg viewBox="0 0 4 4" x="686" y="1712" width="57" height="57" shape-rendering="auto"><path fill="#ff00fa" d="M3.15,0A0.85,0.85,0,0,1,4,0.85V4H0V0H3.15Z"/></svg><svg viewBox="0 0 4 4" x="743" y="1712" width="57" height="57" shape-rendering="auto"><path fill="#ff00fa" d="M0.85,4A0.85,0.85,0,0,1,0,3.15V4Z"/></svg><svg viewBox="0 0 4 4" x="800" y="1712" width="57" height="57" shape-rendering="auto"><path fill="#ff00fa" d="M0,3.15A0.85,0.85,0,0,0,0.85,4h2.3A0.85,0.85,0,0,0,4,3.15V0H0V3.15Z"/></svg><svg viewBox="0 0 4 4" x="971" y="1712" width="57" height="57" shape-rendering="auto"><path fill="#ff00fa" d="M4,3.15V0.85A0.85,0.85,0,0,0,3.15,0H0.85A0.85,0.85,0,0,0,0,0.85V4H4Z"/></svg><svg viewBox="0 0 4 4" x="1028" y="1712" width="57" height="57" shape-rendering="auto"><path fill="#ff00fa" d="M4,0.85V0H3.15A0.85,0.85,0,0,1,4,0.85Z"/></svg><svg viewBox="0 0 4 4" x="1085" y="1712" width="57" height="57" shape-rendering="auto"><path fill="#ff00fa" d="M0,3.15A0.85,0.85,0,0,0,0.85,4H4V0H0V3.15Z"/></svg><svg viewBox="0 0 4 4" x="1142" y="1712" width="57" height="57" shape-rendering="auto"><rect fill="#ff00fa" width="4" height="4"/></svg><svg viewBox="0 0 4 4" x="1199" y="1712" width="57" height="57" shape-rendering="auto"><rect fill="#ff00fa" width="4" height="4"/></svg><svg viewBox="0 0 4 4" x="1256" y="1712" width="57" height="57" shape-rendering="auto"><rect fill="#ff00fa" width="4" height="4"/></svg><svg viewBox="0 0 4 4" x="1313" y="1712" width="57" height="57" shape-rendering="auto"><rect fill="#ff00fa" width="4" height="4"/></svg><svg viewBox="0 0 4 4" x="1370" y="1712" width="57" height="57" shape-rendering="auto"><path fill="#ff00fa" d="M0.85,4h2.3A0.85,0.85,0,0,0,4,3.15V0.85A0.85,0.85,0,0,0,3.15,0H0V4Z"/></svg><svg viewBox="0 0 4 4" x="1541" y="1712" width="57" height="57" shape-rendering="auto"><path fill="#ff00fa" d="M4,0.85V0H3.15A0.85,0.85,0,0,1,4,0.85Z"/></svg><svg viewBox="0 0 4 4" x="1598" y="1712" width="57" height="57" shape-rendering="auto"><rect fill="#ff00fa" width="4" height="4"/></svg><svg viewBox="0 0 4 4" x="1655" y="1712" width="57" height="57" shape-rendering="auto"><path fill="#ff00fa" d="M4,3.15A0.85,0.85,0,0,1,3.15,4H0V0H4V3.15Z"/></svg><svg viewBox="0 0 4 4" x="1769" y="1712" width="57" height="57" shape-rendering="auto"><path fill="#ff00fa" d="M0,3.15A0.85,0.85,0,0,0,0.85,4h2.3A0.85,0.85,0,0,0,4,3.15V0H0V3.15Z"/></svg><svg viewBox="0 0 4 4" x="629" y="1769" width="57" height="57" shape-rendering="auto"><path fill="#ff00fa" d="M0,3.15A0.85,0.85,0,0,0,0.85,4H4V0H0V3.15Z"/></svg><svg viewBox="0 0 4 4" x="686" y="1769" width="57" height="57" shape-rendering="auto"><rect fill="#ff00fa" width="4" height="4"/></svg><svg viewBox="0 0 4 4" x="743" y="1769" width="57" height="57" shape-rendering="auto"><path fill="#ff00fa" d="M0.85,4h2.3A0.85,0.85,0,0,0,4,3.15V0.85A0.85,0.85,0,0,0,3.15,0H0V4Z"/></svg><svg viewBox="0 0 4 4" x="857" y="1769" width="57" height="57" shape-rendering="auto"><rect fill="#ff00fa" width="4" height="4" rx="0.85"/></svg><svg viewBox="0 0 4 4" x="971" y="1769" width="57" height="57" shape-rendering="auto"><path fill="#ff00fa" d="M0,3.15A0.85,0.85,0,0,0,0.85,4h2.3A0.85,0.85,0,0,0,4,3.15V0H0V3.15Z"/></svg><svg viewBox="0 0 4 4" x="1199" y="1769" width="57" height="57" shape-rendering="auto"><path fill="#ff00fa" d="M4,0.85V0H3.15A0.85,0.85,0,0,1,4,0.85Z"/></svg><svg viewBox="0 0 4 4" x="1256" y="1769" width="57" height="57" shape-rendering="auto"><path fill="#ff00fa" d="M0,3.15A0.85,0.85,0,0,0,0.85,4h2.3A0.85,0.85,0,0,0,4,3.15V0H0V3.15Z"/></svg><svg viewBox="0 0 4 4" x="1313" y="1769" width="57" height="57" shape-rendering="auto"><path fill="#ff00fa" d="M0.85,0H0V0.85A0.85,0.85,0,0,1,0.85,0Z"/></svg><svg viewBox="0 0 4 4" x="1427" y="1769" width="57" height="57" shape-rendering="auto"><path fill="#ff00fa" d="M3.15,0H0.85A0.85,0.85,0,0,0,0,0.85v2.3A0.85,0.85,0,0,0,0.85,4H4V0Z"/></svg><svg viewBox="0 0 4 4" x="1484" y="1769" width="57" height="57" shape-rendering="auto"><path fill="#ff00fa" d="M0.85,4h2.3A0.85,0.85,0,0,0,4,3.15V0.85A0.85,0.85,0,0,0,3.15,0H0V4Z"/></svg><svg viewBox="0 0 4 4" x="1598" y="1769" width="57" height="57" shape-rendering="auto"><path fill="#ff00fa" d="M0,3.15A0.85,0.85,0,0,0,0.85,4h2.3A0.85,0.85,0,0,0,4,3.15V0H0V3.15Z"/></svg><svg viewBox="0 0 4 4" x="1655" y="1769" width="57" height="57" shape-rendering="auto"><path fill="#ff00fa" d="M0.85,0H0V0.85A0.85,0.85,0,0,1,0.85,0Z"/></svg><svg viewBox="0 0 4 4" x="1712" y="1769" width="57" height="57" shape-rendering="auto"><rect fill="#ff00fa" width="4" height="4" rx="0.85"/></svg><svg version="1.1" id="Ebene_1" x="173" y="173" viewBox="0 0 700 700" style="enable-background:new 0 0 700 700;" xml:space="preserve" width="399" height="399" shape-rendering="auto">

<path fill="#0013ff" d="M21.2-0.1C9.5-0.1-0.1,9.5-0.1,21.2v78.8v100v100v100v100v100v78.8c0,11.7,9.5,21.3,21.3,21.3h657.6  c11.7,0,21.3-9.5,21.3-21.3V600V500V400V300V200v-100V21.2c0-11.7-9.5-21.3-21.3-21.3H21.2z M600,200v100v100v100v87.8  c0,6.8-5.5,12.2-12.2,12.2H112.2c-6.8,0-12.2-5.5-12.2-12.2V500V400V300V200v-87.8c0-6.8,5.5-12.2,12.2-12.2h475.6  c6.8,0,12.2,5.5,12.2,12.2V200z"/>
</svg>
<svg version="1.1" id="Ebene_1" x="173" y="173" viewBox="0 0 700 700" style="enable-background:new 0 0 700 700;" xml:space="preserve" width="399" height="399" shape-rendering="auto">

<path fill="#00b8ff" d="M500,400V300v-78.8c0-11.7-9.5-21.3-21.3-21.3H221.2c-11.7,0-21.3,9.5-21.3,21.3V300v100v78.8    c0,11.7,9.5,21.3,21.3,21.3h257.5c11.7,0,21.3-9.5,21.3-21.3V400z"/>
</svg>
<svg version="1.1" id="Ebene_1" x="1427" y="173" viewBox="0 0 700 700" style="enable-background:new 0 0 700 700;" xml:space="preserve" width="399" height="399" shape-rendering="auto">

<path fill="#0013ff" d="M21.2-0.1C9.5-0.1-0.1,9.5-0.1,21.2v78.8v100v100v100v100v100v78.8c0,11.7,9.5,21.3,21.3,21.3h657.6  c11.7,0,21.3-9.5,21.3-21.3V600V500V400V300V200v-100V21.2c0-11.7-9.5-21.3-21.3-21.3H21.2z M600,200v100v100v100v87.8  c0,6.8-5.5,12.2-12.2,12.2H112.2c-6.8,0-12.2-5.5-12.2-12.2V500V400V300V200v-87.8c0-6.8,5.5-12.2,12.2-12.2h475.6  c6.8,0,12.2,5.5,12.2,12.2V200z"/>
</svg>
<svg version="1.1" id="Ebene_1" x="1427" y="173" viewBox="0 0 700 700" style="enable-background:new 0 0 700 700;" xml:space="preserve" width="399" height="399" shape-rendering="auto">

<path fill="#00b8ff" d="M500,400V300v-78.8c0-11.7-9.5-21.3-21.3-21.3H221.2c-11.7,0-21.3,9.5-21.3,21.3V300v100v78.8    c0,11.7,9.5,21.3,21.3,21.3h257.5c11.7,0,21.3-9.5,21.3-21.3V400z"/>
</svg>
<svg version="1.1" id="Ebene_1" x="173" y="1427" viewBox="0 0 700 700" style="enable-background:new 0 0 700 700;" xml:space="preserve" width="399" height="399" shape-rendering="auto">

<path fill="#0013ff" d="M21.2-0.1C9.5-0.1-0.1,9.5-0.1,21.2v78.8v100v100v100v100v100v78.8c0,11.7,9.5,21.3,21.3,21.3h657.6  c11.7,0,21.3-9.5,21.3-21.3V600V500V400V300V200v-100V21.2c0-11.7-9.5-21.3-21.3-21.3H21.2z M600,200v100v100v100v87.8  c0,6.8-5.5,12.2-12.2,12.2H112.2c-6.8,0-12.2-5.5-12.2-12.2V500V400V300V200v-87.8c0-6.8,5.5-12.2,12.2-12.2h475.6  c6.8,0,12.2,5.5,12.2,12.2V200z"/>
</svg>
<svg version="1.1" id="Ebene_1" x="173" y="1427" viewBox="0 0 700 700" style="enable-background:new 0 0 700 700;" xml:space="preserve" width="399" height="399" shape-rendering="auto">

<path fill="#00b8ff" d="M500,400V300v-78.8c0-11.7-9.5-21.3-21.3-21.3H221.2c-11.7,0-21.3,9.5-21.3,21.3V300v100v78.8    c0,11.7,9.5,21.3,21.3,21.3h257.5c11.7,0,21.3-9.5,21.3-21.3V400z"/>
</svg>
</svg>

</svg>
